<mxfile host="app.diagrams.net" modified="2023-06-14T08:38:26.660Z" agent="Mozilla/5.0 (Macintosh; Intel Mac OS X 10_15_7) AppleWebKit/605.1.15 (KHTML, like Gecko) Version/16.5 Safari/605.1.15" etag="X_C8ZKum3n44GxpP9t3x" version="21.3.8" type="github">
  <diagram id="FQnuojej9cimsxruIp-J" name="第 1 页">
    <mxGraphModel dx="1426" dy="1847" grid="1" gridSize="10" guides="1" tooltips="1" connect="1" arrows="1" fold="1" page="0" pageScale="1" pageWidth="827" pageHeight="1169" background="none" math="0" shadow="0">
      <root>
        <mxCell id="0" />
        <mxCell id="1" parent="0" />
        <mxCell id="node20" value="&lt;p style=&quot;margin:0px;margin-top:4px;text-align:center;&quot;&gt;&lt;b&gt;dict_detail  /* 字典明细表 */&lt;/b&gt;&lt;/p&gt;&lt;hr size=&quot;1&quot;/&gt;&lt;p style=&quot;margin:0 0 0 4px;line-height:1.6;&quot;&gt; field_type  /* 字典类型代码 */: varchar(100)&lt;br/&gt; field_detail  /* 字典明细代码 */: varchar(100)&lt;br/&gt; field_detail_name  /* 字典明细名称 */: varchar(200)&lt;br/&gt; parent_id  /* 上级字典明细代码 */: varchar(40)&lt;br/&gt; create_time  /* 创建时间 */: datetime&lt;br/&gt; update_time  /* 更新时间 */: datetime&lt;br/&gt; valid  /* 是否有效 0 无效 1 有效 */: int(11)&lt;br/&gt; remark  /* 备注 */: varchar(200)&lt;/p&gt;&lt;hr size=&quot;1&quot;/&gt;&lt;p style=&quot;margin:0 0 0 4px;line-height:1.6;&quot;&gt; id  /* id */: varchar(40)&lt;/p&gt;" style="verticalAlign=top;align=left;overflow=fill;fontSize=14;fontFamily=Helvetica;html=1;rounded=0;shadow=0;comic=0;labelBackgroundColor=none;strokeWidth=1;" parent="1" vertex="1">
          <mxGeometry x="1092" y="4005" width="388" height="271" as="geometry" />
        </mxCell>
        <mxCell id="node29" value="&lt;p style=&quot;margin:0px;margin-top:4px;text-align:center;&quot;&gt;&lt;b&gt;org_data_scope  /* 系统机构数据范围表 */&lt;/b&gt;&lt;/p&gt;&lt;hr size=&quot;1&quot;/&gt;&lt;p style=&quot;margin:0 0 0 4px;line-height:1.6;&quot;&gt; org_id  /* 机构id */: varchar(40)&lt;br/&gt; auth_org_id  /* 授权机构id */: varchar(40)&lt;/p&gt;&lt;hr size=&quot;1&quot;/&gt;&lt;p style=&quot;margin:0 0 0 4px;line-height:1.6;&quot;&gt; id  /* 主键 */: varchar(40)&lt;/p&gt;" style="verticalAlign=top;align=left;overflow=fill;fontSize=14;fontFamily=Helvetica;html=1;rounded=0;shadow=0;comic=0;labelBackgroundColor=none;strokeWidth=1;" parent="1" vertex="1">
          <mxGeometry x="4126" y="4005" width="355" height="124" as="geometry" />
        </mxCell>
        <mxCell id="node25" value="&lt;p style=&quot;margin:0px;margin-top:4px;text-align:center;&quot;&gt;&lt;b&gt;t_b_ultrasonography_inspection  /* B超检查申请 */&lt;/b&gt;&lt;/p&gt;&lt;hr size=&quot;1&quot;/&gt;&lt;p style=&quot;margin:0 0 0 4px;line-height:1.6;&quot;&gt; create_time  /* 创建时间 */: datetime&lt;br/&gt; update_time  /* 更新时间 */: datetime&lt;br/&gt; create_id  /* 创建者id */: varchar(36)&lt;br/&gt; update_id  /* 更新者id */: varchar(36)&lt;br/&gt; is_delete  /* 是否删除（0 删除 1 未删除） */: varchar(1)&lt;br/&gt; register_id  /* 登记表ID 存储t_register_info ID */: varchar(50)&lt;br/&gt; medical_history  /* 病史 */: varchar(255)&lt;br/&gt; inpatient_area  /* 病区 */: varchar(255)&lt;br/&gt; doctor  /* 申请医师 */: varchar(50)&lt;br/&gt; nonghe_no  /* 农合卡号 */: varchar(50)&lt;br/&gt; department  /* 科室 */: varchar(50)&lt;br/&gt; bed_no  /* 床号 */: varchar(50)&lt;br/&gt; diagnosis  /* 诊断 */: varchar(255)&lt;br/&gt; money  /* 金额 */: varchar(50)&lt;br/&gt; to_org  /* 发往机构 存储机构表t_organ ID */: varchar(50)&lt;br/&gt; inspection_position  /* 检查部位 存储检查部位字典key */: varchar(255)&lt;br/&gt; inspection_position_extra  /* 检查部位额外信息 存储检查部位额外信息字典key */: varchar(255)&lt;br/&gt; preparation  /* 检查前准备 */: varchar(255)&lt;br/&gt; operator_id  /* 操作人ID */: varchar(255)&lt;br/&gt; operator_name  /* 操作人名称 */: varchar(255)&lt;br/&gt; operator_org_id  /* 操作机构ID */: varchar(255)&lt;br/&gt; operator_org_name  /* 操作机构名称 */: varchar(255)&lt;/p&gt;&lt;hr size=&quot;1&quot;/&gt;&lt;p style=&quot;margin:0 0 0 4px;line-height:1.6;&quot;&gt; id  /* id主键 */: varchar(36)&lt;/p&gt;" style="verticalAlign=top;align=left;overflow=fill;fontSize=14;fontFamily=Helvetica;html=1;rounded=0;shadow=0;comic=0;labelBackgroundColor=none;strokeWidth=1;" parent="1" vertex="1">
          <mxGeometry x="2967" y="2069" width="667" height="635" as="geometry" />
        </mxCell>
        <mxCell id="node13" value="&lt;p style=&quot;margin:0px;margin-top:4px;text-align:center;&quot;&gt;&lt;b&gt;t_biopsy_sampling  /* 乳腺活检取样信息登记 */&lt;/b&gt;&lt;/p&gt;&lt;hr size=&quot;1&quot;/&gt;&lt;p style=&quot;margin:0 0 0 4px;line-height:1.6;&quot;&gt; create_time  /* 创建时间 */: datetime&lt;br/&gt; update_time  /* 更新时间 */: datetime&lt;br/&gt; create_id  /* 创建者id */: varchar(36)&lt;br/&gt; update_id  /* 更新者id */: varchar(36)&lt;br/&gt; is_delete  /* 是否删除（0 删除 1 未删除） */: varchar(1)&lt;br/&gt; mammary_gland_no  /* 乳腺编号 */: varchar(50)&lt;br/&gt; left_clock_method1  /* 左乳时钟法1 */: varchar(50)&lt;br/&gt; left_clock_method2  /* 左乳时钟法2 */: varchar(50)&lt;br/&gt; left_breast_size1  /* 左乳大小1 */: varchar(50)&lt;br/&gt; left_breast_size2  /* 左乳大小2 */: varchar(50)&lt;br/&gt; right_clock_method1  /* 右乳时钟法1 */: varchar(50)&lt;br/&gt; right_clock_method2  /* 右乳时钟法2 */: varchar(50)&lt;br/&gt; right_breast_size1  /* 右乳大小1 */: varchar(50)&lt;br/&gt; right_breast_size2  /* 右乳大小2 */: varchar(50)&lt;br/&gt; activity  /* 活动度 存储未活动度字典key */: varchar(50)&lt;br/&gt; tenderness  /* 压痛 存储压痛字典key */: varchar(50)&lt;br/&gt; mass_texture  /* 肿块质地 存储肿块质地字典key */: varchar(50)&lt;br/&gt; nipple_haemorrhage  /* 乳头溢血 存储乳头溢血字典key */: varchar(50)&lt;br/&gt; nipple_discharge  /* 乳头溢液 存储乳头溢液字典key */: varchar(50)&lt;br/&gt; discovery_date  /* 发现日期 */: datetime&lt;br/&gt; other  /* 其他 */: varchar(255)&lt;br/&gt; operator_id  /* 操作人ID */: varchar(255)&lt;br/&gt; operator_name  /* 操作人名称 */: varchar(255)&lt;br/&gt; operator_org_id  /* 操作机构ID */: varchar(255)&lt;br/&gt; operator_org_name  /* 操作机构名称 */: varchar(255)&lt;/p&gt;&lt;hr size=&quot;1&quot;/&gt;&lt;p style=&quot;margin:0 0 0 4px;line-height:1.6;&quot;&gt; id  /* id主键 */: varchar(36)&lt;/p&gt;" style="verticalAlign=top;align=left;overflow=fill;fontSize=14;fontFamily=Helvetica;html=1;rounded=0;shadow=0;comic=0;labelBackgroundColor=none;strokeWidth=1;" parent="1" vertex="1">
          <mxGeometry x="1032" y="2069" width="508" height="713" as="geometry" />
        </mxCell>
        <mxCell id="node23" value="&lt;p style=&quot;margin:0px;margin-top:4px;text-align:center;&quot;&gt;&lt;b&gt;t_breast_cancer_history  /* 乳腺癌病史 */&lt;/b&gt;&lt;/p&gt;&lt;hr size=&quot;1&quot;/&gt;&lt;p style=&quot;margin:0 0 0 4px;line-height:1.6;&quot;&gt; create_time  /* 创建时间 */: datetime&lt;br/&gt; update_time  /* 更新时间 */: datetime&lt;br/&gt; create_id  /* 创建者id */: varchar(36)&lt;br/&gt; update_id  /* 更新者id */: varchar(36)&lt;br/&gt; is_delete  /* 是否删除（0 删除 1 未删除） */: varchar(1)&lt;br/&gt; mammary_gland_no  /* 乳腺编号 */: varchar(50)&lt;br/&gt; menarche_age  /* 月经初潮年龄 */: int(11)&lt;br/&gt; last_menstruation  /* 末次月经 */: varchar(50)&lt;br/&gt; menopause_status  /* 是否绝经 存储是否字典key */: varchar(20)&lt;br/&gt; menopause_age  /* 绝经年龄 */: int(11)&lt;br/&gt; gravida  /* 孕次 */: int(11)&lt;br/&gt; delevery_times  /* 分娩次 */: int(11)&lt;br/&gt; first_birth_age  /* 初产年龄 */: int(11)&lt;br/&gt; childbirth  /* 是否生产过 存储是否字典key 废弃 */: varchar(20)&lt;br/&gt; lactation  /* 是否哺乳 存储是否字典key */: varchar(20)&lt;br/&gt; breast_cancer_examination  /* 是否接受过乳腺癌检查 存储是否字典key */: varchar(20)&lt;br/&gt; last_examination_year  /* 最近一次筛查时间 */: varchar(255)&lt;br/&gt; examination_content  /* 检查内容 */: varchar(255)&lt;br/&gt; mammary_gland_history  /* 是否乳腺手术或活检史 存储有无字典key */: varchar(20)&lt;br/&gt; mammary_gland_times  /* 乳腺手术或活检史次数 */: varchar(255)&lt;br/&gt; pathological_results  /* 病理结果字典 存储病理结果字典key */: varchar(255)&lt;br/&gt; hormone_replace_history  /* 是否激素代替质量史 存储是否字典key */: varchar(20)&lt;br/&gt; family_breast_cancer_history  /* 乳腺癌家族史 存储是否字典key */: varchar(20)&lt;br/&gt; family_breast_cancer_relation  /* 乳腺癌家族患者与自己的关系 存储字典 */: varchar(255)&lt;br/&gt; family_breast_cancer_relation_other  /* 乳腺癌家族患者与自己的关系其他信息 */: varchar(255)&lt;br/&gt; family_oophoroma_history  /* 卵巢癌家族史 存储是否字典key */: varchar(20)&lt;br/&gt; family_oophoroma_relation  /* 卵巢癌家族患者与自己的关系 存储字典 */: varchar(255)&lt;br/&gt; family_oophoroma_relation_other  /* 卵巢癌家族患者与自己的关系其他信息 */: varchar(255)&lt;br/&gt; medication_time  /* 用药时间 */: varchar(50)&lt;br/&gt; operator_id  /* 操作人ID */: varchar(255)&lt;br/&gt; operator_name  /* 操作人名称 */: varchar(255)&lt;br/&gt; operator_org_id  /* 操作机构ID */: varchar(255)&lt;br/&gt; operator_org_name  /* 操作机构名称 */: varchar(255)&lt;/p&gt;&lt;hr size=&quot;1&quot;/&gt;&lt;p style=&quot;margin:0 0 0 4px;line-height:1.6;&quot;&gt; id  /* id主键 */: varchar(36)&lt;/p&gt;" style="verticalAlign=top;align=left;overflow=fill;fontSize=14;fontFamily=Helvetica;html=1;rounded=0;shadow=0;comic=0;labelBackgroundColor=none;strokeWidth=1;" parent="1" vertex="1">
          <mxGeometry x="1729" y="947" width="682" height="921" as="geometry" />
        </mxCell>
        <mxCell id="node18" value="&lt;p style=&quot;margin:0px;margin-top:4px;text-align:center;&quot;&gt;&lt;b&gt;t_breast_cancer_info  /* 乳腺癌信息 */&lt;/b&gt;&lt;/p&gt;&lt;hr size=&quot;1&quot;/&gt;&lt;p style=&quot;margin:0 0 0 4px;line-height:1.6;&quot;&gt; create_time  /* 创建时间 */: datetime&lt;br/&gt; update_time  /* 更新时间 */: datetime&lt;br/&gt; create_id  /* 创建者id */: varchar(36)&lt;br/&gt; update_id  /* 更新者id */: varchar(36)&lt;br/&gt; is_delete  /* 是否删除（0 删除 1 未删除） */: varchar(1)&lt;br/&gt; mammary_gland_no  /* 乳腺编号 */: varchar(50)&lt;br/&gt; age  /* 年龄 */: int(11)&lt;br/&gt; name  /* 姓名 */: varchar(50)&lt;br/&gt; id_card  /* 证件号码 */: varchar(50)&lt;br/&gt; barcode  /* 条码号 */: varchar(50)&lt;br/&gt; hand_examination  /* 手诊 */: varchar(255)&lt;br/&gt; color_doppler_ultrasound  /* 彩超 */: varchar(255)&lt;br/&gt; molybdenum_target  /* 钼靶 */: varchar(255)&lt;br/&gt; pathology_examination_result  /* 病理组织检查结果 */: varchar(255)&lt;br/&gt; final_diagnosis  /* 最终检查结果 */: varchar(255)&lt;br/&gt; molybdenum_inspection_date  /* 钼靶检查日期 */: date&lt;br/&gt; pathology_examination_date  /* 最终检查日期 */: date&lt;br/&gt; management_place_id  /* 管理地id 存储区域表t_region的id */: varchar(50)&lt;br/&gt; management_place_mer_name  /* 管理地名称 存储区域表t_region的mer_name */: varchar(255)&lt;br/&gt; phone_number  /* 电话号码/联系电话 */: varchar(50)&lt;br/&gt; entry_organization  /* 录入机构 存储机构表t_organ ID */: varchar(50)&lt;br/&gt; registrant  /* 登记人 */: varchar(50)&lt;br/&gt; inspection_date  /* 检查日期 */: datetime&lt;br/&gt; allowances  /* 低保情况 存储低保字典key值 */: varchar(50)&lt;br/&gt; follow_up_status  /* 是否随访 存储随访字典key */: varchar(20)&lt;br/&gt; closure_status  /* 是否结案 存储结案状态字典key */: varchar(20)&lt;br/&gt; remark  /* 备注 */: varchar(255)&lt;/p&gt;&lt;hr size=&quot;1&quot;/&gt;&lt;p style=&quot;margin:0 0 0 4px;line-height:1.6;&quot;&gt; id  /* id主键 */: varchar(36)&lt;/p&gt;" style="verticalAlign=top;align=left;overflow=fill;fontSize=14;fontFamily=Helvetica;html=1;rounded=0;shadow=0;comic=0;labelBackgroundColor=none;strokeWidth=1;" parent="1" vertex="1">
          <mxGeometry x="3761" y="947" width="670" height="765" as="geometry" />
        </mxCell>
        <mxCell id="node14" value="&lt;p style=&quot;margin:0px;margin-top:4px;text-align:center;&quot;&gt;&lt;b&gt;t_breast_follow_treatment_result  /* 乳腺癌随访治疗情况 */&lt;/b&gt;&lt;/p&gt;&lt;hr size=&quot;1&quot;/&gt;&lt;p style=&quot;margin:0 0 0 4px;line-height:1.6;&quot;&gt; create_time  /* 创建时间 */: datetime&lt;br/&gt; update_time  /* 更新时间 */: datetime&lt;br/&gt; create_id  /* 创建者id */: varchar(36)&lt;br/&gt; update_id  /* 更新者id */: varchar(36)&lt;br/&gt; is_delete  /* 是否删除（0 删除 1 未删除） */: varchar(1)&lt;br/&gt; mammary_gland_no  /* 乳腺编号 */: varchar(50)&lt;br/&gt; lesions_follow_up  /* 随访情况 存储随访情况字典 */: varchar(255)&lt;br/&gt; breast_lesions_treatment  /* 乳腺癌患者接受治疗情况 存储乳腺癌患者接受治疗情况字典 */: varchar(255)&lt;br/&gt; follow_up_date  /* 随访日期 */: datetime&lt;br/&gt; follow_up_org  /* 随访机构 */: varchar(50)&lt;br/&gt; follow_up_user  /* 随访人员 */: varchar(50)&lt;br/&gt; operator_id  /* 操作人ID */: varchar(255)&lt;br/&gt; operator_name  /* 操作人名称 */: varchar(255)&lt;br/&gt; operator_org_id  /* 操作机构ID */: varchar(255)&lt;br/&gt; operator_org_name  /* 操作机构名称 */: varchar(255)&lt;br/&gt; remark  /* 备注 */: varchar(255)&lt;/p&gt;&lt;hr size=&quot;1&quot;/&gt;&lt;p style=&quot;margin:0 0 0 4px;line-height:1.6;&quot;&gt; id  /* id主键 */: varchar(36)&lt;/p&gt;" style="verticalAlign=top;align=left;overflow=fill;fontSize=14;fontFamily=Helvetica;html=1;rounded=0;shadow=0;comic=0;labelBackgroundColor=none;strokeWidth=1;" parent="1" vertex="1">
          <mxGeometry x="3677" y="2879" width="725" height="479" as="geometry" />
        </mxCell>
        <mxCell id="node42" value="&lt;p style=&quot;margin:0px;margin-top:4px;text-align:center;&quot;&gt;&lt;b&gt;t_breast_palpation  /* 乳腺癌乳腺触诊 */&lt;/b&gt;&lt;/p&gt;&lt;hr size=&quot;1&quot;/&gt;&lt;p style=&quot;margin:0 0 0 4px;line-height:1.6;&quot;&gt; create_time  /* 创建时间 */: datetime&lt;br/&gt; update_time  /* 更新时间 */: datetime&lt;br/&gt; create_id  /* 创建者id */: varchar(36)&lt;br/&gt; update_id  /* 更新者id */: varchar(36)&lt;br/&gt; is_delete  /* 是否删除（0 删除 1 未删除） */: varchar(1)&lt;br/&gt; mammary_gland_no  /* 乳腺编号 */: varchar(50)&lt;br/&gt; left_breast_symptoms  /* 左乳症状 存储左乳症状字典key */: varchar(50)&lt;br/&gt; left_specific_breast_symptoms  /* 左乳具体症状 */: varchar(255)&lt;br/&gt; right_breast_symptoms  /* 右乳症状 存储右乳症状字典key */: varchar(50)&lt;br/&gt; right_specific_breast_symptoms  /* 右乳具体症状 */: varchar(255)&lt;br/&gt; left_breast_sign  /* 左乳体征 */: varchar(255)&lt;br/&gt; right_breast_sign  /* 右乳体征 */: varchar(255)&lt;br/&gt; clinical_examination_results  /* 临床检查结果 存储临床检查结果字典key */: varchar(50)&lt;br/&gt; further_result  /* 进一步检查结果 存储进一步检查结果字典key */: varchar(255)&lt;br/&gt; further_result_other  /* 进一步检查结果其他信息 */: varchar(255)&lt;br/&gt; benign_lesion  /* 良性病变 废弃 */: varchar(255)&lt;br/&gt; mammography  /* 是否建议做乳腺X线 存储是否建议做乳腺X线字典key 废弃 */: varchar(50)&lt;br/&gt; inspection_org  /* 检查机构 */: varchar(50)&lt;br/&gt; inspectors  /* 检查人员 */: varchar(50)&lt;br/&gt; inspection_date  /* 检查日期 */: datetime&lt;br/&gt; operator_id  /* 操作人ID */: varchar(255)&lt;br/&gt; operator_name  /* 操作人名称 */: varchar(255)&lt;br/&gt; operator_org_id  /* 操作机构ID */: varchar(255)&lt;br/&gt; operator_org_name  /* 操作机构名称 */: varchar(255)&lt;/p&gt;&lt;hr size=&quot;1&quot;/&gt;&lt;p style=&quot;margin:0 0 0 4px;line-height:1.6;&quot;&gt; id  /* id主键 */: varchar(36)&lt;/p&gt;" style="verticalAlign=top;align=left;overflow=fill;fontSize=14;fontFamily=Helvetica;html=1;rounded=0;shadow=0;comic=0;labelBackgroundColor=none;strokeWidth=1;" parent="1" vertex="1">
          <mxGeometry x="2296" y="2069" width="626" height="687" as="geometry" />
        </mxCell>
        <mxCell id="node5" value="&lt;p style=&quot;margin:0px;margin-top:4px;text-align:center;&quot;&gt;&lt;b&gt;t_breast_pathology_examination_info  /* 乳腺组织病理信息登记 */&lt;/b&gt;&lt;/p&gt;&lt;hr size=&quot;1&quot;/&gt;&lt;p style=&quot;margin:0 0 0 4px;line-height:1.6;&quot;&gt; create_time  /* 创建时间 */: datetime&lt;br/&gt; update_time  /* 更新时间 */: datetime&lt;br/&gt; create_id  /* 创建者id */: varchar(36)&lt;br/&gt; update_id  /* 更新者id */: varchar(36)&lt;br/&gt; is_delete  /* 是否删除（0 删除 1 未删除） */: varchar(1)&lt;br/&gt; mammary_gland_no  /* 乳腺编号 */: varchar(50)&lt;br/&gt; pathology_examination_result  /* 组织病理检查结果 存储组织病理检查结果字典key */: varchar(50)&lt;br/&gt; inspection_org  /* 检查机构 */: varchar(50)&lt;br/&gt; inspectors  /* 检查人员 */: varchar(50)&lt;br/&gt; inspection_date  /* 检查日期 */: datetime&lt;br/&gt; operator_id  /* 操作人ID */: varchar(255)&lt;br/&gt; operator_name  /* 操作人名称 */: varchar(255)&lt;br/&gt; operator_org_id  /* 操作机构ID */: varchar(255)&lt;br/&gt; operator_org_name  /* 操作机构名称 */: varchar(255)&lt;/p&gt;&lt;hr size=&quot;1&quot;/&gt;&lt;p style=&quot;margin:0 0 0 4px;line-height:1.6;&quot;&gt; id  /* id主键 */: varchar(36)&lt;/p&gt;" style="verticalAlign=top;align=left;overflow=fill;fontSize=14;fontFamily=Helvetica;html=1;rounded=0;shadow=0;comic=0;labelBackgroundColor=none;strokeWidth=1;" parent="1" vertex="1">
          <mxGeometry x="1267" y="3481" width="690" height="427" as="geometry" />
        </mxCell>
        <mxCell id="node47" value="&lt;p style=&quot;margin:0px;margin-top:4px;text-align:center;&quot;&gt;&lt;b&gt;t_calendar  /* 节假日表 */&lt;/b&gt;&lt;/p&gt;&lt;hr size=&quot;1&quot;/&gt;&lt;p style=&quot;margin:0 0 0 4px;line-height:1.6;&quot;&gt; create_time  /* 创建时间 */: datetime&lt;br/&gt; update_time  /* 更新时间 */: datetime&lt;br/&gt; create_id  /* 创建者id */: varchar(36)&lt;br/&gt; update_id  /* 更新者id */: varchar(36)&lt;br/&gt; is_delete  /* 是否删除（0 删除 1 未删除） */: varchar(1)&lt;br/&gt; date  /* 日期 */: date&lt;br/&gt; is_holiday  /* 是否是节假日（0-否 1-是） */: varchar(2)&lt;/p&gt;&lt;hr size=&quot;1&quot;/&gt;&lt;p style=&quot;margin:0 0 0 4px;line-height:1.6;&quot;&gt; id  /* 主键 */: int(11)&lt;/p&gt;" style="verticalAlign=top;align=left;overflow=fill;fontSize=14;fontFamily=Helvetica;html=1;rounded=0;shadow=0;comic=0;labelBackgroundColor=none;strokeWidth=1;" parent="1" vertex="1">
          <mxGeometry x="2374" y="4005" width="399" height="245" as="geometry" />
        </mxCell>
        <mxCell id="node16" value="&lt;p style=&quot;margin:0px;margin-top:4px;text-align:center;&quot;&gt;&lt;b&gt;t_cervical_cancer_history  /* 宫颈癌病史 */&lt;/b&gt;&lt;/p&gt;&lt;hr size=&quot;1&quot;/&gt;&lt;p style=&quot;margin:0 0 0 4px;line-height:1.6;&quot;&gt; create_time  /* 创建时间 */: datetime&lt;br/&gt; update_time  /* 更新时间 */: datetime&lt;br/&gt; create_id  /* 创建者id */: varchar(36)&lt;br/&gt; update_id  /* 更新者id */: varchar(36)&lt;br/&gt; is_delete  /* 是否删除（0 删除 1 未删除） */: varchar(1)&lt;br/&gt; cervical_curette_no  /* 宫颈刮片号 */: varchar(50)&lt;br/&gt; intercource_bleeding  /* 性交出血 存储有无字典key 废弃 */: varchar(20)&lt;br/&gt; leucorrhea  /* 白带异常 存储有无字典key 废弃 */: varchar(20)&lt;br/&gt; period_left_date  /* 月经经期 left date 废弃 */: int(11)&lt;br/&gt; period_right_date  /* 月经经期 right date 废弃 */: int(11)&lt;br/&gt; cycle_left_date  /* 月经周期 left date 废弃 */: int(11)&lt;br/&gt; cycle_right_date  /* 月经周期 right date 废弃 */: int(11)&lt;br/&gt; menopause_status  /* 是否绝经 存储是否字典key */: varchar(20)&lt;br/&gt; menopause_age  /* 绝经年龄 */: int(11)&lt;br/&gt; larc  /* 避孕方法  存储避孕方法字典key 废弃 */: varchar(20)&lt;br/&gt; larc_other  /* 其他具体避孕方法 当避孕方法为其他时存储具体的其他避孕方法 废弃 */: varchar(20)&lt;br/&gt; last_menstruation  /* 末次月经 */: varchar(50)&lt;br/&gt; gravida  /* 孕次 */: int(11)&lt;br/&gt; delevery_times  /* 分娩次 */: int(11)&lt;br/&gt; previous_cervical_cancer_check  /* 既往接受过宫颈癌检查 存储是否字典key */: varchar(20)&lt;br/&gt; last_check_time  /* 最近一次筛查时间 */: varchar(50)&lt;br/&gt; three_year_check  /* 三年内是否接受过筛查 存储是否字典key */: varchar(20)&lt;br/&gt; cervical_cytology_exception  /* 宫颈细胞学结果异常 存储是否字典key 废弃 */: varchar(20)&lt;br/&gt; cervical_cytology_exception_result  /* 宫颈细胞学结果 废弃 */: varchar(255)&lt;br/&gt; hpv_positive  /* HPV检查阳性 存储有无字典key 废弃 */: varchar(20)&lt;br/&gt; hpv_result  /* HPV检查结果 废弃 */: varchar(50)&lt;br/&gt; cin  /* CIN 存储有无字典key 废弃 */: varchar(20)&lt;br/&gt; cin_result  /* CIN结果 废弃 */: varchar(50)&lt;br/&gt; cervical_carcinoma  /* 宫颈癌 存储有无字典key 废弃 */: varchar(20)&lt;br/&gt; cervical_carcinoma_result  /* 宫颈癌结果 废弃 */: varchar(255)&lt;br/&gt; rti  /* 生殖道感染 存储有无字典key 废弃 */: varchar(20)&lt;br/&gt; rti_result  /* 生殖道感染结果 废弃 */: varchar(255)&lt;br/&gt; ohter_tumors  /* 其他肿瘤 存储有无字典key 废弃 */: varchar(20)&lt;br/&gt; ohter_tumors_result  /* 其他肿瘤结果 废弃 */: varchar(255)&lt;br/&gt; family_history_tumors  /* 家族肿瘤史 存储有无字典key 废弃 */: varchar(20)&lt;br/&gt; family_history_tumors_result  /* 家族肿瘤史结果 废弃 */: varchar(255)&lt;br/&gt; inoculation_hpv  /* 既往是否接收过HPV疫苗 存储是否字典key */: varchar(20)&lt;br/&gt; inoculation_hpv_time  /* 接种hpv疫苗时间 */: varchar(50)&lt;br/&gt; hpv_vaccines_type  /* 接种hpv疫苗类型 存储hpv疫苗类型字典 */: varchar(20)&lt;br/&gt; hpv_vaccines_type_other  /* 接种hpv疫苗类型其他信息 */: varchar(255)&lt;br/&gt; operator_id  /* 操作人ID */: varchar(255)&lt;br/&gt; operator_name  /* 操作人名称 */: varchar(255)&lt;br/&gt; operator_org_id  /* 操作机构ID */: varchar(255)&lt;br/&gt; operator_org_name  /* 操作机构名称 */: varchar(255)&lt;/p&gt;&lt;hr size=&quot;1&quot;/&gt;&lt;p style=&quot;margin:0 0 0 4px;line-height:1.6;&quot;&gt; id  /* id主键 */: varchar(36)&lt;/p&gt;" style="verticalAlign=top;align=left;overflow=fill;fontSize=14;fontFamily=Helvetica;html=1;rounded=0;shadow=0;comic=0;labelBackgroundColor=none;strokeWidth=1;" parent="1" vertex="1">
          <mxGeometry x="3719" y="-903" width="660" height="1207" as="geometry" />
        </mxCell>
        <mxCell id="node34" value="&lt;p style=&quot;margin:0px;margin-top:4px;text-align:center;&quot;&gt;&lt;b&gt;t_cervical_cancer_info  /* 宫颈癌信息 */&lt;/b&gt;&lt;/p&gt;&lt;hr size=&quot;1&quot;/&gt;&lt;p style=&quot;margin:0 0 0 4px;line-height:1.6;&quot;&gt; create_time  /* 创建时间 */: datetime&lt;br/&gt; update_time  /* 更新时间 */: datetime&lt;br/&gt; create_id  /* 创建者id */: varchar(36)&lt;br/&gt; update_id  /* 更新者id */: varchar(36)&lt;br/&gt; is_delete  /* 是否删除（0 删除 1 未删除） */: varchar(1)&lt;br/&gt; cervical_curette_no  /* 宫颈刮片号 */: varchar(50)&lt;br/&gt; age  /* 年龄 */: int(11)&lt;br/&gt; name  /* 姓名 */: varchar(50)&lt;br/&gt; id_card  /* 证件号码 */: varchar(50)&lt;br/&gt; barcode  /* 条码号 */: varchar(50)&lt;br/&gt; clinical_diagnosis  /* 妇科检查临床结果 */: varchar(255)&lt;br/&gt; tct  /* tct检查结果 */: varchar(255)&lt;br/&gt; colposcopy  /* 阴道镜 */: varchar(255)&lt;br/&gt; biopsy  /* 活检 */: varchar(255)&lt;br/&gt; final_diagnosis  /* 最后诊断 */: varchar(255)&lt;br/&gt; colposcopy_inspection_date  /* 阴道镜检查日期 */: date&lt;br/&gt; biopsy_inspection_date  /* 组织检查日期 */: date&lt;br/&gt; management_place_id  /* 管理地id 存储区域表t_region的id */: varchar(50)&lt;br/&gt; management_place_mer_name  /* 管理地名称 存储区域表t_region的mer_name */: varchar(255)&lt;br/&gt; phone_number  /* 电话号码/联系电话 */: varchar(50)&lt;br/&gt; entry_organization  /* 录入机构 存储机构表t_organ ID */: varchar(50)&lt;br/&gt; registrant  /* 登记人 */: varchar(50)&lt;br/&gt; inspection_date  /* 检查日期 */: datetime&lt;br/&gt; allowances  /* 低保情况 存储低保字典key值 */: varchar(20)&lt;br/&gt; follow_up_status  /* 是否随访 存储随访字典key */: varchar(20)&lt;br/&gt; closure_status  /* 是否结案 存储结案状态字典key */: varchar(20)&lt;br/&gt; remark  /* 备注 */: varchar(255)&lt;/p&gt;&lt;hr size=&quot;1&quot;/&gt;&lt;p style=&quot;margin:0 0 0 4px;line-height:1.6;&quot;&gt; id  /* id主键 */: varchar(36)&lt;/p&gt;" style="verticalAlign=top;align=left;overflow=fill;fontSize=14;fontFamily=Helvetica;html=1;rounded=0;shadow=0;comic=0;labelBackgroundColor=none;strokeWidth=1;" parent="1" vertex="1">
          <mxGeometry x="-383" y="2069" width="670" height="765" as="geometry" />
        </mxCell>
        <mxCell id="node12" value="&lt;p style=&quot;margin:0px;margin-top:4px;text-align:center;&quot;&gt;&lt;b&gt;t_cervical_curette_result  /* 宫颈刮片结果 */&lt;/b&gt;&lt;/p&gt;&lt;hr size=&quot;1&quot;/&gt;&lt;p style=&quot;margin:0 0 0 4px;line-height:1.6;&quot;&gt; create_time  /* 创建时间 */: datetime&lt;br/&gt; update_time  /* 更新时间 */: datetime&lt;br/&gt; create_id  /* 创建者id */: varchar(36)&lt;br/&gt; update_id  /* 更新者id */: varchar(36)&lt;br/&gt; is_delete  /* 是否删除（0 删除 1 未删除） */: varchar(1)&lt;br/&gt; cervical_curette_no  /* 宫颈刮片号 */: varchar(50)&lt;br/&gt; sample_satisfaction  /* 样本满意度 存储样本满意度字典key */: varchar(50)&lt;br/&gt; squamous_epithelial_cells_analysis  /* 鳞状上皮细胞分析 存储是否字典key */: varchar(50)&lt;br/&gt; glandular_epithelial_cells_analysis  /* 腺上皮细胞分析 存储腺上皮细胞分析字典key */: varchar(50)&lt;br/&gt; cell_volume  /* 细胞量 */: varchar(50)&lt;br/&gt; cell_volume_extra  /* 细胞量额外信息 */: varchar(255)&lt;br/&gt; report_comments  /* 报告意见 */: varchar(255)&lt;br/&gt; inspectors  /* 检查人员 */: varchar(50)&lt;br/&gt; inspection_date  /* 检查日期 */: datetime&lt;br/&gt; operator_id  /* 操作人ID */: varchar(255)&lt;br/&gt; operator_name  /* 操作人名称 */: varchar(255)&lt;br/&gt; operator_org_id  /* 操作机构ID */: varchar(255)&lt;br/&gt; operator_org_name  /* 操作机构名称 */: varchar(255)&lt;/p&gt;&lt;hr size=&quot;1&quot;/&gt;&lt;p style=&quot;margin:0 0 0 4px;line-height:1.6;&quot;&gt; id  /* id主键 */: varchar(36)&lt;/p&gt;" style="verticalAlign=top;align=left;overflow=fill;fontSize=14;fontFamily=Helvetica;html=1;rounded=0;shadow=0;comic=0;labelBackgroundColor=none;strokeWidth=1;" parent="1" vertex="1">
          <mxGeometry x="2348" y="2879" width="647" height="531" as="geometry" />
        </mxCell>
        <mxCell id="node33" value="&lt;p style=&quot;margin:0px;margin-top:4px;text-align:center;&quot;&gt;&lt;b&gt;t_cervical_final_diagnosis  /* 宫颈癌最后诊断 */&lt;/b&gt;&lt;/p&gt;&lt;hr size=&quot;1&quot;/&gt;&lt;p style=&quot;margin:0 0 0 4px;line-height:1.6;&quot;&gt; create_time  /* 创建时间 */: datetime&lt;br/&gt; update_time  /* 更新时间 */: datetime&lt;br/&gt; create_id  /* 创建者id */: varchar(36)&lt;br/&gt; update_id  /* 更新者id */: varchar(36)&lt;br/&gt; is_delete  /* 是否删除（0 删除 1 未删除） */: varchar(1)&lt;br/&gt; cervical_curette_no  /* 宫颈刮片号 */: varchar(50)&lt;br/&gt; final_diagnosis  /* 最后诊断 存储宫颈癌最后诊断字典key */: varchar(50)&lt;br/&gt; final_diagnosis_other  /* 最后诊断其他信息 */: varchar(255)&lt;br/&gt; diagnostic_org  /* 诊断机构 */: varchar(50)&lt;br/&gt; diagnostic_user  /* 诊断人员 */: varchar(50)&lt;br/&gt; diagnostic_date  /* 诊断日期 */: datetime&lt;br/&gt; operator_id  /* 操作人ID */: varchar(255)&lt;br/&gt; operator_name  /* 操作人名称 */: varchar(255)&lt;br/&gt; operator_org_id  /* 操作机构ID */: varchar(255)&lt;br/&gt; operator_org_name  /* 操作机构名称 */: varchar(255)&lt;/p&gt;&lt;hr size=&quot;1&quot;/&gt;&lt;p style=&quot;margin:0 0 0 4px;line-height:1.6;&quot;&gt; id  /* id主键 */: varchar(36)&lt;/p&gt;" style="verticalAlign=top;align=left;overflow=fill;fontSize=14;fontFamily=Helvetica;html=1;rounded=0;shadow=0;comic=0;labelBackgroundColor=none;strokeWidth=1;" parent="1" vertex="1">
          <mxGeometry x="714" y="3481" width="508" height="453" as="geometry" />
        </mxCell>
        <mxCell id="node36" value="&lt;p style=&quot;margin:0px;margin-top:4px;text-align:center;&quot;&gt;&lt;b&gt;t_clinic_report  /* 临床报告管理表 */&lt;/b&gt;&lt;/p&gt;&lt;hr size=&quot;1&quot;/&gt;&lt;p style=&quot;margin:0 0 0 4px;line-height:1.6;&quot;&gt; check_no  /* 检查号 */: varchar(20)&lt;br/&gt; lab_no  /* 实验编号 */: varchar(20)&lt;br/&gt; name  /* 姓名 */: varchar(10)&lt;br/&gt; sex  /* 性别 1男 2女 */: varchar(1)&lt;br/&gt; age  /* 年龄 */: varchar(3)&lt;br/&gt; patient_no  /* 门诊号 */: varchar(50)&lt;br/&gt; bedno  /* 床位号 */: varchar(6)&lt;br/&gt; admission_no  /* 住院号 */: varchar(20)&lt;br/&gt; reqhspt  /* 送检医院 */: varchar(50)&lt;br/&gt; reqdept  /* 送检科室 */: varchar(20)&lt;br/&gt; reqdoct  /* 送检医师 */: varchar(20)&lt;br/&gt; reqdate  /* 送检日期 */: varchar(20)&lt;br/&gt; clinical_diagnosis  /* 临床诊断 */: varchar(120)&lt;br/&gt; cell_volume  /* 细胞量DM */: varchar(1)&lt;br/&gt; satisfaction  /* 样本满意度DM 1 满意 2不满意 */: varchar(1)&lt;br/&gt; benign_reactive_disease  /* 良性反应性病变类型DM */: varchar(20)&lt;br/&gt; inflammation  /* 炎症DM */: varchar(10)&lt;br/&gt; inflammatory_cell  /* 炎细胞DM */: varchar(10)&lt;br/&gt; squamous_glandular_cell  /* 鳞状、腺上皮细胞分析类型DM */: varchar(10)&lt;br/&gt; atypical_squamous_cell  /* 非典型鳞状细胞DM */: varchar(10)&lt;br/&gt; atypical_adenosine_cell_none_special  /* 非典型腺细胞(无特殊)DM */: varchar(10)&lt;br/&gt; atypical_adenosine_cell_tumor_prone  /* 非典型腺细胞(倾向肿瘤)DM */: varchar(10)&lt;br/&gt; adenocarcinoma  /* 腺癌DM */: varchar(20)&lt;br/&gt; other_malignant_tumors  /* 其他恶性肿瘤DM */: varchar(1)&lt;br/&gt; pathological_feature_path  /* 病理特征图地址 */: varchar(255)&lt;br/&gt; inspection_report_path  /* 检测报告单地址 */: varchar(255)&lt;br/&gt; diagnosis  /* 诊断意见 */: varchar(200)&lt;br/&gt; advise  /* 建议 */: varchar(200)&lt;br/&gt; report_date  /* 报告日期 */: varchar(20)&lt;br/&gt; check_physician  /* 初审医师 */: varchar(20)&lt;br/&gt; check_time  /* 初审时间 */: datetime&lt;br/&gt; recheck_physician  /* 复审医师 */: varchar(20)&lt;br/&gt; recheck_time  /* 复审时间即诊断时间 */: datetime&lt;br/&gt; is_sign  /* 是否签名 0 未签名 1已签名 */: varchar(1)&lt;br/&gt; create_time  /* 创建时间 */: datetime&lt;br/&gt; update_time  /* 更新时间 */: datetime&lt;br/&gt; create_id  /* 创建者id */: varchar(36)&lt;br/&gt; update_id  /* 更新者id */: varchar(36)&lt;br/&gt; is_delete  /* 是否删除（0 删除 1 未删除） */: varchar(1)&lt;/p&gt;&lt;hr size=&quot;1&quot;/&gt;&lt;p style=&quot;margin:0 0 0 4px;line-height:1.6;&quot;&gt; id  /* id主键 */: varchar(36)&lt;/p&gt;" style="verticalAlign=top;align=left;overflow=fill;fontSize=14;fontFamily=Helvetica;html=1;rounded=0;shadow=0;comic=0;labelBackgroundColor=none;strokeWidth=1;" parent="1" vertex="1">
          <mxGeometry x="-383" y="947" width="615" height="1077" as="geometry" />
        </mxCell>
        <mxCell id="node15" value="&lt;p style=&quot;margin:0px;margin-top:4px;text-align:center;&quot;&gt;&lt;b&gt;t_clinic_sample  /* 临床样本管理表 */&lt;/b&gt;&lt;/p&gt;&lt;hr size=&quot;1&quot;/&gt;&lt;p style=&quot;margin:0 0 0 4px;line-height:1.6;&quot;&gt; admission_no  /* 住院号 */: varchar(7)&lt;br/&gt; patient_no  /* 门诊号 */: varchar(7)&lt;br/&gt; lab_no  /* 实验编号 */: varchar(10)&lt;br/&gt; name  /* 姓名 */: varchar(20)&lt;br/&gt; sex  /* 性别 1男 2女 */: varchar(1)&lt;br/&gt; age  /* 年龄 */: varchar(3)&lt;br/&gt; nation  /* 民族 */: varchar(20)&lt;br/&gt; is_married  /* 婚否 0否 1是 */: varchar(1)&lt;br/&gt; profession  /* 职业 */: varchar(50)&lt;br/&gt; origin  /* 籍贯 */: varchar(200)&lt;br/&gt; idcard  /* 身份证号码 */: varchar(20)&lt;br/&gt; address  /* 联系地址 */: varchar(200)&lt;br/&gt; phone  /* 联系电话 */: varchar(12)&lt;br/&gt; reqhspt  /* 送检医院 */: varchar(50)&lt;br/&gt; reqdept  /* 送检科室 */: varchar(20)&lt;br/&gt; reqdoct  /* 送检医师 */: varchar(20)&lt;br/&gt; reqdate  /* 收到日期 */: varchar(20)&lt;br/&gt; ward  /* 病区 */: varchar(20)&lt;br/&gt; bedno  /* 床位号 */: varchar(5)&lt;br/&gt; sample_name  /* 标本名称 */: varchar(120)&lt;br/&gt; chargetype  /* 费别 */: varchar(10)&lt;br/&gt; charge  /* 收费 */: varchar(15)&lt;br/&gt; clinical_diagnosis  /* 临床诊断 */: varchar(120)&lt;br/&gt; medical_abstract  /* 病史摘要 */: varchar(600)&lt;br/&gt; surgery_see  /* 手术所见 */: varchar(400)&lt;br/&gt; admission  /* 住院次数 */: varchar(2)&lt;br/&gt; project_code  /* 医嘱项目编码 */: varchar(20)&lt;br/&gt; project_name  /* 医嘱项目名称 */: varchar(60)&lt;br/&gt; sample_status  /* 样本状态 1接收 2制片染色 3风干 4扫描 5生成报告 */: varchar(100)&lt;br/&gt; unqualified  /* 不合格原因 */: varchar(100)&lt;br/&gt; is_qualified  /* 样本质量 0 不合格 1合格 */: varchar(1)&lt;br/&gt; receive_name  /* 接收人,多个人以逗号分隔 */: varchar(100)&lt;br/&gt; receive_time  /* 接收时间 */: datetime&lt;br/&gt; flaking_dye_name  /* 制片染色人,多个人以逗号分隔 */: varchar(100)&lt;br/&gt; flaking_dye_time  /* 制片染色时间 */: datetime&lt;br/&gt; flaking_dye_comment  /* 制片染色备注 */: varchar(255)&lt;br/&gt; air_drying_name  /* 风干参与人,多个人以逗号分隔 */: varchar(100)&lt;br/&gt; air_drying_time  /* 风干时间 */: datetime&lt;br/&gt; air_drying_comment  /* 风干备注 */: varchar(255)&lt;br/&gt; scan_name  /* 扫描参与人,多个人以逗号分隔 */: varchar(100)&lt;br/&gt; scan_time  /* 扫描时间 */: datetime&lt;br/&gt; scan_comment  /* 扫描备注 */: varchar(255)&lt;br/&gt; generate_report_name  /* 生成报告参与人,多个人以逗号分隔 */: varchar(100)&lt;br/&gt; generate_report_time  /* 生成报告时间 */: datetime&lt;br/&gt; generate_report_comment  /* 生成报告备注 */: varchar(255)&lt;br/&gt; related_id  /* 关联ID,存放国卫接口返回的MainId字段 */: int(11)&lt;br/&gt; diagnose_time  /* 诊断时间 */: datetime&lt;br/&gt; handle_status  /* 切片状态 1已扫描且未诊断 2已诊断即已初审 3已复审 */: varchar(1)&lt;br/&gt; create_time  /* 创建时间 */: datetime&lt;br/&gt; update_time  /* 更新时间 */: datetime&lt;br/&gt; create_id  /* 创建者id */: varchar(36)&lt;br/&gt; update_id  /* 更新者id */: varchar(36)&lt;br/&gt; is_delete  /* 是否删除（0 删除 1 未删除） */: varchar(1)&lt;/p&gt;&lt;hr size=&quot;1&quot;/&gt;&lt;p style=&quot;margin:0 0 0 4px;line-height:1.6;&quot;&gt; id  /* id主键 */: varchar(36)&lt;/p&gt;" style="verticalAlign=top;align=left;overflow=fill;fontSize=14;fontFamily=Helvetica;html=1;rounded=0;shadow=0;comic=0;labelBackgroundColor=none;strokeWidth=1;" parent="1" vertex="1">
          <mxGeometry x="1753" y="-903" width="586" height="1441" as="geometry" />
        </mxCell>
        <mxCell id="node31" value="&lt;p style=&quot;margin:0px;margin-top:4px;text-align:center;&quot;&gt;&lt;b&gt;t_color_ultrasound_examination  /* 乳腺彩色超声检查 */&lt;/b&gt;&lt;/p&gt;&lt;hr size=&quot;1&quot;/&gt;&lt;p style=&quot;margin:0 0 0 4px;line-height:1.6;&quot;&gt; create_time  /* 创建时间 */: datetime&lt;br/&gt; update_time  /* 更新时间 */: datetime&lt;br/&gt; create_id  /* 创建者id */: varchar(36)&lt;br/&gt; update_id  /* 更新者id */: varchar(36)&lt;br/&gt; is_delete  /* 是否删除（0 删除 1 未删除） */: varchar(1)&lt;br/&gt; mammary_gland_no  /* 乳腺编号 */: varchar(50)&lt;br/&gt; left_breast_cyst  /* 左乳囊肿 存储左乳囊肿字典key */: varchar(50)&lt;br/&gt; left_breast_cyst_desc  /* 左乳复杂囊肿描述 */: varchar(255)&lt;br/&gt; left_breast_solid_mass  /* 左乳实型肿块 存储左乳实型肿块字典key */: varchar(50)&lt;br/&gt; left_breast_solid_mass_desc  /* 左乳实型肿块说明 */: varchar(255)&lt;br/&gt; right_breast_cyst  /* 右乳囊肿 存储右乳囊肿字典key */: varchar(50)&lt;br/&gt; right_breast_cyst_desc  /* 右乳复杂囊肿描述 */: varchar(255)&lt;br/&gt; right_breast_solid_mass  /* 右乳实型肿块 存储右乳实型肿块字典key */: varchar(50)&lt;br/&gt; right_breast_solid_mass_desc  /* 右乳实型肿块说明 */: varchar(255)&lt;br/&gt; left_position  /* 左乳部位 */: varchar(255)&lt;br/&gt; right_position  /* 右乳部位 */: varchar(255)&lt;br/&gt; left_quadrant  /* 左乳象限法（可触及者） */: varchar(255)&lt;br/&gt; right_quadrant  /* 右乳象限法（可触及者） */: varchar(255)&lt;br/&gt; left_clock  /* 左乳时钟法（不可触及者） */: varchar(255)&lt;br/&gt; right_clock  /* 右乳时钟法（不可触及者） */: varchar(255)&lt;br/&gt; left_size_x  /* 左乳大小X */: decimal(10,2)&lt;br/&gt; right_size_x  /* 右乳大小X */: decimal(10,2)&lt;br/&gt; left_size_mm  /* 左乳大小mm */: decimal(10,2)&lt;br/&gt; right_size_mm  /* 右乳大小mm */: decimal(10,2)&lt;br/&gt; left_form  /* 左乳形态  存储乳房形态字典 */: varchar(255)&lt;br/&gt; right_form  /* 右乳形态 存储乳房形态字典 */: varchar(255)&lt;br/&gt; left_direction  /* 左乳方向 存储乳房方向字典 */: varchar(255)&lt;br/&gt; right_direction  /* 右乳方向 存储乳房方向字典 */: varchar(255)&lt;br/&gt; left_edge  /* 左乳边缘 存储乳房边缘字典 */: varchar(255)&lt;br/&gt; right_edge  /* 右乳边缘 存储乳房边缘字典 */: varchar(255)&lt;br/&gt; left_ring  /* 左乳肿块周边晕环 存储乳房肿块周边晕环字典 */: varchar(255)&lt;br/&gt; right_ring  /* 右乳肿块周边晕环 存储乳房肿块周边晕环字典 */: varchar(255)&lt;br/&gt; left_nature  /* 左乳内部回声性质 存储乳房内部回声性质字典 */: varchar(255)&lt;br/&gt; right_nature  /* 右乳内部回声性质 存储乳房内部回声性质字典 */: varchar(255)&lt;br/&gt; left_distribution  /* 左乳内部回声分布 存储乳房内部回声分布字典 */: varchar(255)&lt;br/&gt; right_distribution  /* 右乳内部回声分布 存储乳房内部回声分布字典 */: varchar(255)&lt;br/&gt; left_echo  /* 左乳后方回声  存储乳房后方回声字典 */: varchar(255)&lt;br/&gt; right_echo  /* 右乳后方回声  存储乳房后方回声字典 */: varchar(255)&lt;br/&gt; left_calcification  /* 左乳肿块内钙化 存储乳房肿块内钙化字典 */: varchar(255)&lt;br/&gt; right_calcification  /* 右乳肿块内钙化 存储乳房肿块内钙化字典 */: varchar(255)&lt;br/&gt; left_blood  /* 左乳血流 存储乳房血流字典 */: varchar(255)&lt;br/&gt; right_blood  /* 右乳血流 存储乳房血流字典 */: varchar(255)&lt;br/&gt; left_lymph  /* 左乳腋淋巴结描述 存储乳房腋淋巴结描述字典 */: varchar(255)&lt;br/&gt; right_lymph  /* 右乳腋淋巴结描述 存储乳房腋淋巴结描述字典 */: varchar(255)&lt;br/&gt; left_simple_hyperplasia  /* 左乳是否有单纯性增生 存储右左乳是否有单纯性增生key 废弃 */: varchar(50)&lt;br/&gt; right_simple_hyperplasia  /* 右乳是否有单纯性增生 存储右乳是否有单纯性增生key 废弃 */: varchar(50)&lt;br/&gt; left_other  /* 左乳其他描述 废弃 */: varchar(255)&lt;br/&gt; right_other  /* 右乳其他描述 废弃 */: varchar(255)&lt;br/&gt; left_classification  /* 左乳分级 存储左乳分级字典key */: varchar(50)&lt;br/&gt; left_classification_desc  /* 左乳分级描述 */: varchar(255)&lt;br/&gt; right_classification  /* 右乳分级 存储右乳分级字典key */: varchar(50)&lt;br/&gt; right_classification_desc  /* 右乳分级描述 */: varchar(255)&lt;br/&gt; proposal  /* 建议 存储建议字典key */: varchar(50)&lt;br/&gt; lactation  /* 是否哺乳期 存储是否哺乳期字典key 废弃 */: varchar(50)&lt;br/&gt; inspection_org  /* 检查机构 */: varchar(50)&lt;br/&gt; inspectors  /* 检查人员 */: varchar(50)&lt;br/&gt; inspection_date  /* 检查日期 */: datetime&lt;br/&gt; ultrasound_summary  /* 超声总结 废弃 */: varchar(255)&lt;br/&gt; operator_id  /* 操作人ID */: varchar(255)&lt;br/&gt; operator_name  /* 操作人名称 */: varchar(255)&lt;br/&gt; operator_org_id  /* 操作机构ID */: varchar(255)&lt;br/&gt; operator_org_name  /* 操作机构名称 */: varchar(255)&lt;br/&gt; img_location  /* 图片地址 */: json&lt;br/&gt; file_id: varchar(256)&lt;/p&gt;&lt;hr size=&quot;1&quot;/&gt;&lt;p style=&quot;margin:0 0 0 4px;line-height:1.6;&quot;&gt; id  /* id主键 */: varchar(36)&lt;/p&gt;" style="verticalAlign=top;align=left;overflow=fill;fontSize=14;fontFamily=Helvetica;html=1;rounded=0;shadow=0;comic=0;labelBackgroundColor=none;strokeWidth=1;" parent="1" vertex="1">
          <mxGeometry x="365" y="-903" width="703" height="1727" as="geometry" />
        </mxCell>
        <mxCell id="node4" value="&lt;p style=&quot;margin:0px;margin-top:4px;text-align:center;&quot;&gt;&lt;b&gt;t_color_ultrasound_examination_pacs  /* 乳腺彩色超声检查 */&lt;/b&gt;&lt;/p&gt;&lt;hr size=&quot;1&quot;/&gt;&lt;p style=&quot;margin:0 0 0 4px;line-height:1.6;&quot;&gt; create_time  /* 创建时间 */: datetime&lt;br/&gt; update_time  /* 更新时间 */: datetime&lt;br/&gt; create_id  /* 创建者id */: varchar(36)&lt;br/&gt; update_id  /* 更新者id */: varchar(36)&lt;br/&gt; is_delete  /* 是否删除（0 删除 1 未删除） */: varchar(1)&lt;br/&gt; mammary_gland_no  /* 乳腺编号 */: varchar(50)&lt;br/&gt; left_breast_cyst  /* 左乳囊肿 存储左乳囊肿字典key */: varchar(50)&lt;br/&gt; left_breast_cyst_desc  /* 左乳复杂囊肿描述 */: varchar(255)&lt;br/&gt; left_breast_solid_mass  /* 左乳实型肿块 存储左乳实型肿块字典key */: varchar(50)&lt;br/&gt; left_breast_solid_mass_desc  /* 左乳实型肿块说明 */: varchar(255)&lt;br/&gt; right_breast_cyst  /* 右乳囊肿 存储右乳囊肿字典key */: varchar(50)&lt;br/&gt; right_breast_cyst_desc  /* 右乳复杂囊肿描述 */: varchar(255)&lt;br/&gt; right_breast_solid_mass  /* 右乳实型肿块 存储右乳实型肿块字典key */: varchar(50)&lt;br/&gt; right_breast_solid_mass_desc  /* 右乳实型肿块说明 */: varchar(255)&lt;br/&gt; left_position  /* 左乳部位 */: varchar(255)&lt;br/&gt; right_position  /* 右乳部位 */: varchar(255)&lt;br/&gt; left_quadrant  /* 左乳象限法（可触及者） */: varchar(255)&lt;br/&gt; right_quadrant  /* 右乳象限法（可触及者） */: varchar(255)&lt;br/&gt; left_clock  /* 左乳时钟法（不可触及者） */: varchar(255)&lt;br/&gt; right_clock  /* 右乳时钟法（不可触及者） */: varchar(255)&lt;br/&gt; left_size_x  /* 左乳大小X */: decimal(10,2)&lt;br/&gt; right_size_x  /* 右乳大小X */: decimal(10,2)&lt;br/&gt; left_size_mm  /* 左乳大小mm */: decimal(10,2)&lt;br/&gt; right_size_mm  /* 右乳大小mm */: decimal(10,2)&lt;br/&gt; left_form  /* 左乳形态  存储乳房形态字典 */: varchar(255)&lt;br/&gt; right_form  /* 右乳形态 存储乳房形态字典 */: varchar(255)&lt;br/&gt; left_direction  /* 左乳方向 存储乳房方向字典 */: varchar(255)&lt;br/&gt; right_direction  /* 右乳方向 存储乳房方向字典 */: varchar(255)&lt;br/&gt; left_edge  /* 左乳边缘 存储乳房边缘字典 */: varchar(255)&lt;br/&gt; right_edge  /* 右乳边缘 存储乳房边缘字典 */: varchar(255)&lt;br/&gt; left_ring  /* 左乳肿块周边晕环 存储乳房肿块周边晕环字典 */: varchar(255)&lt;br/&gt; right_ring  /* 右乳肿块周边晕环 存储乳房肿块周边晕环字典 */: varchar(255)&lt;br/&gt; left_nature  /* 左乳内部回声性质 存储乳房内部回声性质字典 */: varchar(255)&lt;br/&gt; right_nature  /* 右乳内部回声性质 存储乳房内部回声性质字典 */: varchar(255)&lt;br/&gt; left_distribution  /* 左乳内部回声分布 存储乳房内部回声分布字典 */: varchar(255)&lt;br/&gt; right_distribution  /* 右乳内部回声分布 存储乳房内部回声分布字典 */: varchar(255)&lt;br/&gt; left_echo  /* 左乳后方回声  存储乳房后方回声字典 */: varchar(255)&lt;br/&gt; right_echo  /* 右乳后方回声  存储乳房后方回声字典 */: varchar(255)&lt;br/&gt; left_calcification  /* 左乳肿块内钙化 存储乳房肿块内钙化字典 */: varchar(255)&lt;br/&gt; right_calcification  /* 右乳肿块内钙化 存储乳房肿块内钙化字典 */: varchar(255)&lt;br/&gt; left_blood  /* 左乳血流 存储乳房血流字典 */: varchar(255)&lt;br/&gt; right_blood  /* 右乳血流 存储乳房血流字典 */: varchar(255)&lt;br/&gt; left_lymph  /* 左乳腋淋巴结描述 存储乳房腋淋巴结描述字典 */: varchar(255)&lt;br/&gt; right_lymph  /* 右乳腋淋巴结描述 存储乳房腋淋巴结描述字典 */: varchar(255)&lt;br/&gt; left_simple_hyperplasia  /* 左乳是否有单纯性增生 存储右左乳是否有单纯性增生key 废弃 */: varchar(50)&lt;br/&gt; right_simple_hyperplasia  /* 右乳是否有单纯性增生 存储右乳是否有单纯性增生key 废弃 */: varchar(50)&lt;br/&gt; left_other  /* 左乳其他描述 废弃 */: varchar(255)&lt;br/&gt; right_other  /* 右乳其他描述 废弃 */: varchar(255)&lt;br/&gt; left_classification  /* 左乳分级 存储左乳分级字典key */: varchar(50)&lt;br/&gt; left_classification_desc  /* 左乳分级描述 */: varchar(255)&lt;br/&gt; right_classification  /* 右乳分级 存储右乳分级字典key */: varchar(50)&lt;br/&gt; right_classification_desc  /* 右乳分级描述 */: varchar(255)&lt;br/&gt; proposal  /* 建议 存储建议字典key */: varchar(50)&lt;br/&gt; lactation  /* 是否哺乳期 存储是否哺乳期字典key 废弃 */: varchar(50)&lt;br/&gt; inspection_org  /* 检查机构 */: varchar(50)&lt;br/&gt; inspectors  /* 检查人员 */: varchar(50)&lt;br/&gt; inspection_date  /* 检查日期 */: datetime&lt;br/&gt; ultrasound_summary  /* 超声总结 废弃 */: varchar(255)&lt;br/&gt; operator_id  /* 操作人ID */: varchar(255)&lt;br/&gt; operator_name  /* 操作人名称 */: varchar(255)&lt;br/&gt; operator_org_id  /* 操作机构ID */: varchar(255)&lt;br/&gt; operator_org_name  /* 操作机构名称 */: varchar(255)&lt;br/&gt; img_location  /* 图片地址 */: json&lt;br/&gt; ultrasound_prompt  /* 超声提示 */: varchar(255)&lt;br/&gt; ultrasound_findings  /* 超声所见 */: varchar(255)&lt;br/&gt; remark  /* 备注 */: varchar(255)&lt;br/&gt; file_id  /* 文件id */: json&lt;/p&gt;&lt;hr size=&quot;1&quot;/&gt;&lt;p style=&quot;margin:0 0 0 4px;line-height:1.6;&quot;&gt; id  /* id主键 */: varchar(36)&lt;/p&gt;" style="verticalAlign=top;align=left;overflow=fill;fontSize=14;fontFamily=Helvetica;html=1;rounded=0;shadow=0;comic=0;labelBackgroundColor=none;strokeWidth=1;" parent="1" vertex="1">
          <mxGeometry x="-383" y="-903" width="703" height="1805" as="geometry" />
        </mxCell>
        <mxCell id="node7" value="&lt;p style=&quot;margin:0px;margin-top:4px;text-align:center;&quot;&gt;&lt;b&gt;t_colposcopy_info  /* 宫颈癌阴道镜检查信息登记 */&lt;/b&gt;&lt;/p&gt;&lt;hr size=&quot;1&quot;/&gt;&lt;p style=&quot;margin:0 0 0 4px;line-height:1.6;&quot;&gt; create_time  /* 创建时间 */: datetime&lt;br/&gt; update_time  /* 更新时间 */: datetime&lt;br/&gt; create_id  /* 创建者id */: varchar(36)&lt;br/&gt; update_id  /* 更新者id */: varchar(36)&lt;br/&gt; is_delete  /* 是否删除（0 删除 1 未删除） */: varchar(1)&lt;br/&gt; cervical_curette_no  /* 宫颈刮片号 */: varchar(50)&lt;br/&gt; receive_colposcopy  /* ↲接受阴道镜检查↲ 废弃 */: varchar(50)&lt;br/&gt; colposcopy_evaluation  /* 阴道镜检查评价 存储阴道镜检查评价字典key 废弃 */: varchar(50)&lt;br/&gt; preliminary_diagnosis  /* 初步诊断 存储初步诊断字典key */: varchar(50)&lt;br/&gt; preliminary_diagnosis_extra  /* 初步诊断额外信息 */: varchar(255)&lt;br/&gt; pathology_required  /* 需做组织病理检查 存储是否字典key */: varchar(50)&lt;br/&gt; sampling_position1  /* 取材部位1 存储取材部位字典key 废弃 */: varchar(50)&lt;br/&gt; sampling_position1_extra  /* 取材部位1额外信息 废弃 */: varchar(255)&lt;br/&gt; sampling_position2  /* 取材部位2 存储取材部位字典key 废弃 */: varchar(50)&lt;br/&gt; sampling_position2_extra  /* 取材部位2额外信息 废弃 */: varchar(255)&lt;br/&gt; sampling_position3  /* 取材部位3 存储取材部位字典key 废弃 */: varchar(50)&lt;br/&gt; sampling_position3_extra  /* 取材部位3额外信息 废弃 */: varchar(255)&lt;br/&gt; sampling_position4  /* 取材部位4 存储取材部位字典key 废弃 */: varchar(50)&lt;br/&gt; sampling_position4_extra  /* 取材部位4额外信息 废弃 */: varchar(255)&lt;br/&gt; clock_method1  /* 时钟法1 废弃 */: varchar(50)&lt;br/&gt; clock_method2  /* 时钟法2 废弃 */: varchar(50)&lt;br/&gt; clock_method3  /* 时钟法3 废弃 */: varchar(50)&lt;br/&gt; clock_method4  /* 时钟法4 废弃 */: varchar(50)&lt;br/&gt; adequacy  /* 阴道检查充分性  阴道检查充分性字典key */: varchar(20)&lt;br/&gt; visibility  /* 转化区可见性 存储转化区可见性字典key */: varchar(20)&lt;br/&gt; inspection_unit  /* 检查单位 */: varchar(50)&lt;br/&gt; reporter  /* 报告人员 */: varchar(50)&lt;br/&gt; report_date  /* 报告日期 */: datetime&lt;br/&gt; operator_id  /* 操作人ID */: varchar(255)&lt;br/&gt; operator_name  /* 操作人名称 */: varchar(255)&lt;br/&gt; operator_org_id  /* 操作机构ID */: varchar(255)&lt;br/&gt; operator_org_name  /* 操作机构名称 */: varchar(255)&lt;/p&gt;&lt;hr size=&quot;1&quot;/&gt;&lt;p style=&quot;margin:0 0 0 4px;line-height:1.6;&quot;&gt; id  /* id主键 */: varchar(36)&lt;/p&gt;" style="verticalAlign=top;align=left;overflow=fill;fontSize=14;fontFamily=Helvetica;html=1;rounded=0;shadow=0;comic=0;labelBackgroundColor=none;strokeWidth=1;" parent="1" vertex="1">
          <mxGeometry x="2456" y="947" width="639" height="895" as="geometry" />
        </mxCell>
        <mxCell id="node32" value="&lt;p style=&quot;margin:0px;margin-top:4px;text-align:center;&quot;&gt;&lt;b&gt;t_cytological_info  /* 宫颈细胞学信息登记 */&lt;/b&gt;&lt;/p&gt;&lt;hr size=&quot;1&quot;/&gt;&lt;p style=&quot;margin:0 0 0 4px;line-height:1.6;&quot;&gt; create_time  /* 创建时间 */: datetime&lt;br/&gt; update_time  /* 更新时间 */: datetime&lt;br/&gt; create_id  /* 创建者id */: varchar(36)&lt;br/&gt; update_id  /* 更新者id */: varchar(36)&lt;br/&gt; is_delete  /* 是否删除（0 删除 1 未删除） */: varchar(1)&lt;br/&gt; cervical_curette_no  /* 宫颈刮片号 */: varchar(50)&lt;br/&gt; cervical_cell_sampling_type  /* 宫颈细胞取材方式 存储宫颈细胞取材方式字典key */: varchar(50)&lt;br/&gt; cervical_cell_other  /* 宫颈细胞取材方式(其他) 存储宫颈细胞取材方式其他信息 */: varchar(50)&lt;br/&gt; pap_classification  /* 巴氏分级 存储巴氏分级字典key 废弃 */: varchar(50)&lt;br/&gt; tbs_result  /* TBS分类报告结果 存储TBS分类报告结果字典key */: varchar(50)&lt;br/&gt; colposcopy_required  /* 需阴道镜检查 存储是否字典key */: varchar(50)&lt;br/&gt; inspection_unit  /* 检查单位 */: varchar(50)&lt;br/&gt; reporter  /* 报告人员 */: varchar(50)&lt;br/&gt; report_date  /* 报告日期 */: datetime&lt;br/&gt; operator_id  /* 操作人ID */: varchar(255)&lt;br/&gt; operator_name  /* 操作人名称 */: varchar(255)&lt;br/&gt; operator_org_id  /* 操作机构ID */: varchar(255)&lt;br/&gt; operator_org_name  /* 操作机构名称 */: varchar(255)&lt;/p&gt;&lt;hr size=&quot;1&quot;/&gt;&lt;p style=&quot;margin:0 0 0 4px;line-height:1.6;&quot;&gt; id  /* id主键 */: varchar(36)&lt;/p&gt;" style="verticalAlign=top;align=left;overflow=fill;fontSize=14;fontFamily=Helvetica;html=1;rounded=0;shadow=0;comic=0;labelBackgroundColor=none;strokeWidth=1;" parent="1" vertex="1">
          <mxGeometry x="927" y="2879" width="676" height="531" as="geometry" />
        </mxCell>
        <mxCell id="node21" value="&lt;p style=&quot;margin:0px;margin-top:4px;text-align:center;&quot;&gt;&lt;b&gt;t_delivery_record  /* 样本递送记录 */&lt;/b&gt;&lt;/p&gt;&lt;hr size=&quot;1&quot;/&gt;&lt;p style=&quot;margin:0 0 0 4px;line-height:1.6;&quot;&gt; create_time  /* 创建时间 */: datetime&lt;br/&gt; update_time  /* 更新时间 */: datetime&lt;br/&gt; create_id  /* 创建者id */: varchar(36)&lt;br/&gt; update_id  /* 更新者id */: varchar(36)&lt;br/&gt; is_delete  /* 是否删除（0 删除 1 未删除） */: varchar(1)&lt;br/&gt; delivery_org  /* 递送机构  存储机构表t_organ ID */: varchar(50)&lt;br/&gt; sampling_org  /* 采样机构  存储机构表t_organ ID */: varchar(50)&lt;br/&gt; delivery_user_id  /* 递送人ID */: varchar(50)&lt;br/&gt; delivery_time  /* 递送时间 */: datetime&lt;/p&gt;&lt;hr size=&quot;1&quot;/&gt;&lt;p style=&quot;margin:0 0 0 4px;line-height:1.6;&quot;&gt; id  /* id主键 */: varchar(36)&lt;/p&gt;" style="verticalAlign=top;align=left;overflow=fill;fontSize=14;fontFamily=Helvetica;html=1;rounded=0;shadow=0;comic=0;labelBackgroundColor=none;strokeWidth=1;" parent="1" vertex="1">
          <mxGeometry x="584" y="4005" width="463" height="297" as="geometry" />
        </mxCell>
        <mxCell id="node40" value="&lt;p style=&quot;margin:0px;margin-top:4px;text-align:center;&quot;&gt;&lt;b&gt;t_file  /* 文件表 */&lt;/b&gt;&lt;/p&gt;&lt;hr size=&quot;1&quot;/&gt;&lt;p style=&quot;margin:0 0 0 4px;line-height:1.6;&quot;&gt; bar_code: varchar(200)&lt;br/&gt; file_name  /* 文件名称 */: varchar(200)&lt;br/&gt; file_base64  /* 文件base64字符串 */: mediumtext&lt;br/&gt; file_type  /* 文件类型 1 img 2 pdf */: varchar(1)&lt;br/&gt; create_time  /* 创建时间 */: datetime&lt;br/&gt; update_time  /* 更新时间 */: datetime&lt;br/&gt; business_id  /* 业务id */: varchar(100)&lt;br/&gt; file_id  /* 业务类型 */: varchar(256)&lt;br/&gt; business_type  /* 业务类型 */: char(2)&lt;br/&gt; thumb_url  /* 缩略图地址 */: varchar(256)&lt;br/&gt; url  /* 源文件地址 */: varchar(256)&lt;br/&gt; is_delete  /* 是否删除（0 删除 1 未删除） */: varchar(1)&lt;/p&gt;&lt;hr size=&quot;1&quot;/&gt;&lt;p style=&quot;margin:0 0 0 4px;line-height:1.6;&quot;&gt; id  /* id */: varchar(36)&lt;/p&gt;" style="verticalAlign=top;align=left;overflow=fill;fontSize=14;fontFamily=Helvetica;html=1;rounded=0;shadow=0;comic=0;labelBackgroundColor=none;strokeWidth=1;" parent="1" vertex="1">
          <mxGeometry x="2813" y="3481" width="398" height="375" as="geometry" />
        </mxCell>
        <mxCell id="node43" value="&lt;p style=&quot;margin:0px;margin-top:4px;text-align:center;&quot;&gt;&lt;b&gt;t_final_diagnosis  /* 乳腺癌最后诊断 */&lt;/b&gt;&lt;/p&gt;&lt;hr size=&quot;1&quot;/&gt;&lt;p style=&quot;margin:0 0 0 4px;line-height:1.6;&quot;&gt; create_time  /* 创建时间 */: datetime&lt;br/&gt; update_time  /* 更新时间 */: datetime&lt;br/&gt; create_id  /* 创建者id */: varchar(36)&lt;br/&gt; update_id  /* 更新者id */: varchar(36)&lt;br/&gt; is_delete  /* 是否删除（0 删除 1 未删除） */: varchar(1)&lt;br/&gt; mammary_gland_no  /* 乳腺编号 */: varchar(50)&lt;br/&gt; follow_up  /* 随访情况 存储随访情况字典key 废弃 */: varchar(50)&lt;br/&gt; pathological_examination  /* 病理检查 存储病理检查字典key 废弃 */: varchar(50)&lt;br/&gt; final_diagnosis  /* 最后诊断 存储最后诊断字典key */: varchar(50)&lt;br/&gt; final_diagnosis_ohter  /* 最后诊断其他 */: varchar(255)&lt;br/&gt; final_diagnosis_position  /* 部位 存储最后诊断部位字典 */: varchar(255)&lt;br/&gt; cntm  /* cntm 存储cntm字典 */: varchar(255)&lt;br/&gt; cntm_stage  /* cntm期数 存储cntm期数字典 */: varchar(255)&lt;br/&gt; pntm  /* pntm 存储pntm字典 */: varchar(255)&lt;br/&gt; pntm_stage  /* pntm期数 存储pntm期数字典 */: varchar(255)&lt;br/&gt; diagnostic_org  /* 诊断机构 */: varchar(200)&lt;br/&gt; diagnostic_user  /* 诊断人员 */: varchar(50)&lt;br/&gt; diagnostic_date  /* 诊断日期 */: datetime&lt;br/&gt; img  /* 图片地址 */: varchar(255)&lt;br/&gt; operator_id  /* 操作人ID */: varchar(255)&lt;br/&gt; operator_name  /* 操作人名称 */: varchar(255)&lt;br/&gt; operator_org_id  /* 操作机构ID */: varchar(255)&lt;br/&gt; operator_org_name  /* 操作机构名称 */: varchar(255)&lt;br/&gt; pt_value  /* 病理分期TNM T值 */: varchar(50)&lt;br/&gt; pn_value  /* 病理分期TNM N值 */: varchar(50)&lt;br/&gt; pm_value  /* 病理分期TNM M值 */: varchar(50)&lt;br/&gt; ct_value  /* 临床分期TNM T值 */: varchar(50)&lt;br/&gt; cn_value  /* 临床分期TNM N值 */: varchar(50)&lt;br/&gt; cm_value  /* 临床分期TNM M值 */: varchar(50)&lt;/p&gt;&lt;hr size=&quot;1&quot;/&gt;&lt;p style=&quot;margin:0 0 0 4px;line-height:1.6;&quot;&gt; id  /* id主键 */: varchar(36)&lt;/p&gt;" style="verticalAlign=top;align=left;overflow=fill;fontSize=14;fontFamily=Helvetica;html=1;rounded=0;shadow=0;comic=0;labelBackgroundColor=none;strokeWidth=1;" parent="1" vertex="1">
          <mxGeometry x="3140" y="947" width="576" height="817" as="geometry" />
        </mxCell>
        <mxCell id="node8" value="&lt;p style=&quot;margin:0px;margin-top:4px;text-align:center;&quot;&gt;&lt;b&gt;t_follow_treatment_result  /* 宫颈癌随访治疗结果 */&lt;/b&gt;&lt;/p&gt;&lt;hr size=&quot;1&quot;/&gt;&lt;p style=&quot;margin:0 0 0 4px;line-height:1.6;&quot;&gt; create_time  /* 创建时间 */: datetime&lt;br/&gt; update_time  /* 更新时间 */: datetime&lt;br/&gt; create_id  /* 创建者id */: varchar(36)&lt;br/&gt; update_id  /* 更新者id */: varchar(36)&lt;br/&gt; is_delete  /* 是否删除（0 删除 1 未删除） */: varchar(1)&lt;br/&gt; cervical_curette_no  /* 宫颈刮片号 */: varchar(50)&lt;br/&gt; cervical_lesions_follow_up  /* 宫颈病变随访情况 存储宫颈病变随访情况字典key */: varchar(50)&lt;br/&gt; cervical_lesions_treatment  /* 宫颈病变接受治疗 存储宫颈病变接受治疗字典key */: varchar(50)&lt;br/&gt; curative_treatment  /* 治疗方法 */: varchar(255)&lt;br/&gt; treatment_date  /* 治疗日期 */: datetime&lt;br/&gt; other_tumors_follow_up  /* 其他肿瘤随访情况 存储其他肿瘤随访情况字典key */: varchar(50)&lt;br/&gt; other_tumors_treatment  /* 其他肿瘤接受治疗 存储其他肿瘤接受治疗字典key */: varchar(50)&lt;br/&gt; reason1  /* 原因 */: varchar(255)&lt;br/&gt; untreated_reason  /* 未治原因 */: varchar(255)&lt;br/&gt; therapist  /* 治疗医生 */: varchar(50)&lt;br/&gt; follow_up_date  /* 随访日期 */: datetime&lt;br/&gt; reason2  /* 原因 废弃 */: varchar(255)&lt;br/&gt; follow_up_org  /* 随访机构 */: varchar(50)&lt;br/&gt; follow_up_user  /* 随访人员 */: varchar(50)&lt;br/&gt; operator_id  /* 操作人ID */: varchar(255)&lt;br/&gt; operator_name  /* 操作人名称 */: varchar(255)&lt;br/&gt; operator_org_id  /* 操作机构ID */: varchar(255)&lt;br/&gt; operator_org_name  /* 操作机构名称 */: varchar(255)&lt;br/&gt; remark  /* 备注 */: varchar(255)&lt;/p&gt;&lt;hr size=&quot;1&quot;/&gt;&lt;p style=&quot;margin:0 0 0 4px;line-height:1.6;&quot;&gt; id  /* id主键 */: varchar(36)&lt;/p&gt;" style="verticalAlign=top;align=left;overflow=fill;fontSize=14;fontFamily=Helvetica;html=1;rounded=0;shadow=0;comic=0;labelBackgroundColor=none;strokeWidth=1;" parent="1" vertex="1">
          <mxGeometry x="1585" y="2069" width="666" height="687" as="geometry" />
        </mxCell>
        <mxCell id="node3" value="&lt;p style=&quot;margin:0px;margin-top:4px;text-align:center;&quot;&gt;&lt;b&gt;t_gynecological_examination  /* 宫颈癌妇科检查信息登记 */&lt;/b&gt;&lt;/p&gt;&lt;hr size=&quot;1&quot;/&gt;&lt;p style=&quot;margin:0 0 0 4px;line-height:1.6;&quot;&gt; create_time  /* 创建时间 */: datetime&lt;br/&gt; update_time  /* 更新时间 */: datetime&lt;br/&gt; create_id  /* 创建者id */: varchar(36)&lt;br/&gt; update_id  /* 更新者id */: varchar(36)&lt;br/&gt; is_delete  /* 是否删除（0 删除 1 未删除） */: varchar(1)&lt;br/&gt; cervical_curette_no  /* 宫颈刮片号 */: varchar(50)&lt;br/&gt; vulva  /* 外阴 */: varchar(255)&lt;br/&gt; vagina  /* 阴道 */: varchar(255)&lt;br/&gt; secretion  /* 分泌物 */: varchar(255)&lt;br/&gt; cervix  /* 子宫颈 */: varchar(255)&lt;br/&gt; uterus  /* 子宫 */: varchar(255)&lt;br/&gt; pelvic_cavity  /* 附件（盆腔） */: varchar(255)&lt;br/&gt; secretion_examination  /* 分泌物检查 */: varchar(255)&lt;br/&gt; clinical_diagnosis  /* 妇科检查临床诊断 */: varchar(255)&lt;br/&gt; uterine_prolapse  /* 子宫脱垂 存储子宫脱垂字典key  */: varchar(50)&lt;br/&gt; urinary_incontinence  /* 尿失禁 存储尿失禁字典key  */: varchar(50)&lt;br/&gt; anterior_vaginal_wall_prolapse  /* 阴道前壁膨出 存储阴道前壁膨出字典key  */: varchar(50)&lt;br/&gt; posterior_vaginal_wall_prolapse  /* 阴道后壁膨出 存储阴道后壁膨出字典key  */: varchar(50)&lt;br/&gt; cleanliness  /* 清洁度 存储清洁度字典key 废弃 */: varchar(50)&lt;br/&gt; inspectors  /* 检查人员 */: varchar(50)&lt;br/&gt; inspection_date  /* 检查日期 */: datetime&lt;br/&gt; cervical_cell_sampling  /* 宫颈细胞是否取样 存储是否字典key 废弃 */: varchar(50)&lt;br/&gt; inspection_org  /* 检查机构 */: varchar(50)&lt;br/&gt; operator_id  /* 操作人ID */: varchar(255)&lt;br/&gt; operator_name  /* 操作人名称 */: varchar(255)&lt;br/&gt; operator_org_id  /* 操作机构ID */: varchar(255)&lt;br/&gt; operator_org_name  /* 操作机构名称 */: varchar(255)&lt;/p&gt;&lt;hr size=&quot;1&quot;/&gt;&lt;p style=&quot;margin:0 0 0 4px;line-height:1.6;&quot;&gt; id  /* id主键 */: varchar(36)&lt;/p&gt;" style="verticalAlign=top;align=left;overflow=fill;fontSize=14;fontFamily=Helvetica;html=1;rounded=0;shadow=0;comic=0;labelBackgroundColor=none;strokeWidth=1;" parent="1" vertex="1">
          <mxGeometry x="332" y="2069" width="655" height="765" as="geometry" />
        </mxCell>
        <mxCell id="node35" value="&lt;p style=&quot;margin:0px;margin-top:4px;text-align:center;&quot;&gt;&lt;b&gt;t_health_exam_sample  /* 院内体检样本管理表 */&lt;/b&gt;&lt;/p&gt;&lt;hr size=&quot;1&quot;/&gt;&lt;p style=&quot;margin:0 0 0 4px;line-height:1.6;&quot;&gt; admission_no  /* 住院号 */: varchar(7)&lt;br/&gt; patient_no  /* 门诊号 */: varchar(7)&lt;br/&gt; lab_no  /* 实验编号 */: varchar(10)&lt;br/&gt; name  /* 姓名 */: varchar(20)&lt;br/&gt; sex  /* 性别 1男 2女 */: varchar(1)&lt;br/&gt; age  /* 年龄 */: varchar(3)&lt;br/&gt; nation  /* 民族 */: varchar(20)&lt;br/&gt; is_married  /* 婚否 0否 1是 */: varchar(1)&lt;br/&gt; profession  /* 职业 */: varchar(50)&lt;br/&gt; origin  /* 籍贯 */: varchar(200)&lt;br/&gt; idcard  /* 身份证号码 */: varchar(20)&lt;br/&gt; address  /* 联系地址 */: varchar(200)&lt;br/&gt; phone  /* 联系电话 */: varchar(12)&lt;br/&gt; reqhspt  /* 送检医院 */: varchar(50)&lt;br/&gt; reqdept  /* 送检科室 */: varchar(20)&lt;br/&gt; reqdoct  /* 送检医师 */: varchar(20)&lt;br/&gt; reqdate  /* 收到日期 */: varchar(20)&lt;br/&gt; ward  /* 病区 */: varchar(20)&lt;br/&gt; bedno  /* 床位号 */: varchar(2)&lt;br/&gt; sample_name  /* 标本名称 */: varchar(120)&lt;br/&gt; chargetype  /* 费别 */: varchar(10)&lt;br/&gt; charge  /* 收费 */: varchar(15)&lt;br/&gt; clinical_diagnosis  /* 临床诊断 */: varchar(120)&lt;br/&gt; medical_abstract  /* 病史摘要 */: varchar(600)&lt;br/&gt; surgery_see  /* 手术所见 */: varchar(400)&lt;br/&gt; admission  /* 住院次数 */: varchar(2)&lt;br/&gt; project_code  /* 医嘱项目编码 */: varchar(20)&lt;br/&gt; project_name  /* 医嘱项目名称 */: varchar(60)&lt;br/&gt; sample_status  /* 样本状态 1接收 2制片染色 3风干 4扫描 5生成报告 */: varchar(100)&lt;br/&gt; unqualified  /* 不合格原因 */: varchar(100)&lt;br/&gt; is_qualified  /* 样本质量 0 不合格 1合格 */: varchar(1)&lt;br/&gt; receive_name  /* 接收人,多个人以逗号分隔 */: varchar(100)&lt;br/&gt; receive_time  /* 接收时间 */: datetime&lt;br/&gt; flaking_dye_name  /* 制片染色人,多个人以逗号分隔 */: varchar(100)&lt;br/&gt; flaking_dye_time  /* 制片染色时间 */: datetime&lt;br/&gt; flaking_dye_comment  /* 制片染色备注 */: varchar(255)&lt;br/&gt; air_drying_name  /* 风干参与人,多个人以逗号分隔 */: varchar(100)&lt;br/&gt; air_drying_time  /* 风干时间 */: datetime&lt;br/&gt; air_drying_comment  /* 风干备注 */: varchar(255)&lt;br/&gt; scan_name  /* 扫描参与人,多个人以逗号分隔 */: varchar(100)&lt;br/&gt; scan_time  /* 扫描时间 */: datetime&lt;br/&gt; scan_comment  /* 扫描备注 */: varchar(255)&lt;br/&gt; generate_report_name  /* 生成报告参与人,多个人以逗号分隔 */: varchar(100)&lt;br/&gt; generate_report_time  /* 生成报告时间 */: datetime&lt;br/&gt; generate_report_comment  /* 生成报告备注 */: varchar(255)&lt;br/&gt; related_id  /* 关联ID,存放国卫接口返回的MainId字段 */: int(11)&lt;br/&gt; diagnose_time  /* 诊断时间 */: datetime&lt;br/&gt; handle_status  /* 切片状态 1已扫描且未诊断 2已诊断即已初审 3已复审 */: varchar(1)&lt;br/&gt; create_time  /* 创建时间 */: datetime&lt;br/&gt; update_time  /* 更新时间 */: datetime&lt;br/&gt; create_id  /* 创建者id */: varchar(36)&lt;br/&gt; update_id  /* 更新者id */: varchar(36)&lt;br/&gt; is_delete  /* 是否删除（0 删除 1 未删除） */: varchar(1)&lt;/p&gt;&lt;hr size=&quot;1&quot;/&gt;&lt;p style=&quot;margin:0 0 0 4px;line-height:1.6;&quot;&gt; id  /* id主键 */: varchar(36)&lt;/p&gt;" style="verticalAlign=top;align=left;overflow=fill;fontSize=14;fontFamily=Helvetica;html=1;rounded=0;shadow=0;comic=0;labelBackgroundColor=none;strokeWidth=1;" parent="1" vertex="1">
          <mxGeometry x="2384" y="-903" width="586" height="1441" as="geometry" />
        </mxCell>
        <mxCell id="node44" value="&lt;p style=&quot;margin:0px;margin-top:4px;text-align:center;&quot;&gt;&lt;b&gt;t_hpv_check  /* hpv检测表 */&lt;/b&gt;&lt;/p&gt;&lt;hr size=&quot;1&quot;/&gt;&lt;p style=&quot;margin:0 0 0 4px;line-height:1.6;&quot;&gt; create_time  /* 创建时间 */: datetime&lt;br/&gt; update_time  /* 更新时间 */: datetime&lt;br/&gt; create_id  /* 创建者id */: varchar(36)&lt;br/&gt; update_id  /* 更新者id */: varchar(36)&lt;br/&gt; is_delete  /* 是否删除（0 删除 1 未删除） */: varchar(1)&lt;br/&gt; cervical_curette_no  /* 宫颈刮片号 */: varchar(50)&lt;br/&gt; hpv_check_type  /* hpv检测类型  hpv检测类型字典key */: varchar(20)&lt;br/&gt; hpv_positive_type  /* hpv阳性类型  存储hpv阳性类型字典key */: varchar(20)&lt;br/&gt; hpv_subtype  /* hpv亚型  存储hpv亚型字典key */: varchar(20)&lt;br/&gt; hpv_other  /* hpv其他信息 */: varchar(255)&lt;br/&gt; need_further_check  /* 是否需要进一步检查  存储进一步检查字典key */: varchar(20)&lt;br/&gt; inspectors  /* 检查人员 */: varchar(50)&lt;br/&gt; inspection_date  /* 检查日期 */: datetime&lt;br/&gt; inspection_org  /* 检查机构 */: varchar(50)&lt;br/&gt; operator_id  /* 操作人ID */: varchar(255)&lt;br/&gt; operator_name  /* 操作人名称 */: varchar(255)&lt;br/&gt; operator_org_id  /* 操作机构ID */: varchar(255)&lt;br/&gt; operator_org_name  /* 操作机构名称 */: varchar(255)&lt;/p&gt;&lt;hr size=&quot;1&quot;/&gt;&lt;p style=&quot;margin:0 0 0 4px;line-height:1.6;&quot;&gt; id  /* id主键 */: varchar(36)&lt;/p&gt;" style="verticalAlign=top;align=left;overflow=fill;fontSize=14;fontFamily=Helvetica;html=1;rounded=0;shadow=0;comic=0;labelBackgroundColor=none;strokeWidth=1;" parent="1" vertex="1">
          <mxGeometry x="3040" y="2879" width="592" height="531" as="geometry" />
        </mxCell>
        <mxCell id="node11" value="&lt;p style=&quot;margin:0px;margin-top:4px;text-align:center;&quot;&gt;&lt;b&gt;t_mammography_info  /* 乳腺X线检查信息 */&lt;/b&gt;&lt;/p&gt;&lt;hr size=&quot;1&quot;/&gt;&lt;p style=&quot;margin:0 0 0 4px;line-height:1.6;&quot;&gt; create_time  /* 创建时间 */: datetime&lt;br/&gt; update_time  /* 更新时间 */: datetime&lt;br/&gt; create_id  /* 创建者id */: varchar(36)&lt;br/&gt; update_id  /* 更新者id */: varchar(36)&lt;br/&gt; is_delete  /* 是否删除（0 删除 1 未删除） */: varchar(1)&lt;br/&gt; mammary_gland_no  /* 乳腺编号 */: varchar(50)&lt;br/&gt; accept_inspection  /* 是否接受检查 存储是否接受检查字典key 废弃 */: varchar(50)&lt;br/&gt; not_accepting_inspection_reason  /* 未接受检查原因 存储未接受检查原因字典key 废弃 */: varchar(50)&lt;br/&gt; not_accept_other  /* 未接受检查原因其他 废弃 */: varchar(255)&lt;br/&gt; img  /* 图片地址 */: varchar(2000)&lt;br/&gt; left_milk_class  /* 左乳分级 存储左乳分级字典key */: varchar(50)&lt;br/&gt; right_milk_class  /* 右乳分级 存储左乳分级字典key */: varchar(50)&lt;br/&gt; left_breast_mass  /* 左乳肿块（0，无；1，有；2，其他；存储情况选择字典key） */: varchar(50)&lt;br/&gt; right_breast_mass  /* 右乳肿块（0，无；1，有；2，其他；存储情况选择字典key） */: varchar(50)&lt;br/&gt; left_breast_mass_desc  /* 左乳肿块描述 */: varchar(255)&lt;br/&gt; right_breast_mass_desc  /* 右乳肿块描述 */: varchar(255)&lt;br/&gt; left_milk_calc  /* 左乳可疑钙化（0，无；1，有；存储情况选择字典key） */: varchar(50)&lt;br/&gt; right_milk_calc  /* 右乳可疑钙化（0，无；1，有；存储情况选择字典key） */: varchar(50)&lt;br/&gt; left_milk_disorganization  /* 左乳结构紊乱（0，无；1，有；存储情况选择字典key） */: varchar(50)&lt;br/&gt; right_milk_disorganization  /* 右乳结构紊乱（0，无；1，有；存储情况选择字典key） */: varchar(50)&lt;br/&gt; left_milk_position  /* 左乳部位（0，无；1，有；存储情况选择字典key） */: varchar(50)&lt;br/&gt; right_milk_position  /* 右乳部位（0，无；1，有；存储情况选择字典key） */: varchar(50)&lt;br/&gt; left_milk_other  /* 左乳其他 */: varchar(50)&lt;br/&gt; right_milk_other  /* 右乳其他 */: varchar(50)&lt;br/&gt; proposal  /* 建议（0，定期检查；1，短期随访（6个月后复查）；2，活检 ；3，其他 */: varchar(50)&lt;br/&gt; proposal_other  /* 建议 其他 */: varchar(255)&lt;br/&gt; inspection_org  /* 检查机构 */: varchar(50)&lt;br/&gt; inspectors  /* 检查人员 */: varchar(50)&lt;br/&gt; inspection_date  /* 检查日期 */: datetime&lt;br/&gt; left_size_x  /* 左乳大小X */: decimal(10,2)&lt;br/&gt; right_size_x  /* 右乳大小X */: decimal(10,2)&lt;br/&gt; left_size_mm  /* 左乳大小mm */: decimal(10,2)&lt;br/&gt; right_size_mm  /* 右乳大小mm */: decimal(10,2)&lt;br/&gt; operator_id  /* 操作人ID */: varchar(255)&lt;br/&gt; operator_name  /* 操作人名称 */: varchar(255)&lt;br/&gt; operator_org_id  /* 操作机构ID */: varchar(255)&lt;br/&gt; operator_org_name  /* 操作机构名称 */: varchar(255)&lt;/p&gt;&lt;hr size=&quot;1&quot;/&gt;&lt;p style=&quot;margin:0 0 0 4px;line-height:1.6;&quot;&gt; id  /* id主键 */: varchar(36)&lt;/p&gt;" style="verticalAlign=top;align=left;overflow=fill;fontSize=14;fontFamily=Helvetica;html=1;rounded=0;shadow=0;comic=0;labelBackgroundColor=none;strokeWidth=1;" parent="1" vertex="1">
          <mxGeometry x="277" y="947" width="692" height="1025" as="geometry" />
        </mxCell>
        <mxCell id="node46" value="&lt;p style=&quot;margin:0px;margin-top:4px;text-align:center;&quot;&gt;&lt;b&gt;t_menu  /* 菜单信息 */&lt;/b&gt;&lt;/p&gt;&lt;hr size=&quot;1&quot;/&gt;&lt;p style=&quot;margin:0 0 0 4px;line-height:1.6;&quot;&gt; menu_name  /* 菜单（按钮）名称 */: varchar(200)&lt;br/&gt; menu_address  /* 前端菜单地址 */: varchar(200)&lt;br/&gt; api_address  /* 后端api的地址,多个时候用逗号分割 */: varchar(200)&lt;br/&gt; parent_id  /* 父级菜单id,为0时候表示根菜单 */: varchar(40)&lt;br/&gt; sort_num  /* 排序 */: int(11)&lt;br/&gt; status  /* 有效状态(0 停用 1启用) */: int(11)&lt;br/&gt; create_time  /* 创建时间 */: datetime&lt;br/&gt; update_time  /* 修改时间 */: datetime&lt;br/&gt; valid  /* 是否删除（0 删除 1 未删除） */: int(11)&lt;br/&gt; remark  /* 备注 */: varchar(500)&lt;br/&gt; type  /* 菜单类型,1表示菜单,2表示按钮 */: int(11)&lt;/p&gt;&lt;hr size=&quot;1&quot;/&gt;&lt;p style=&quot;margin:0 0 0 4px;line-height:1.6;&quot;&gt; id  /* id */: varchar(200)&lt;/p&gt;" style="verticalAlign=top;align=left;overflow=fill;fontSize=14;fontFamily=Helvetica;html=1;rounded=0;shadow=0;comic=0;labelBackgroundColor=none;strokeWidth=1;" parent="1" vertex="1">
          <mxGeometry x="-383" y="4005" width="479" height="349" as="geometry" />
        </mxCell>
        <mxCell id="node0" value="&lt;p style=&quot;margin:0px;margin-top:4px;text-align:center;&quot;&gt;&lt;b&gt;t_order_info  /* 两癌预约登记表 */&lt;/b&gt;&lt;/p&gt;&lt;hr size=&quot;1&quot;/&gt;&lt;p style=&quot;margin:0 0 0 4px;line-height:1.6;&quot;&gt; create_time  /* 创建时间 */: datetime&lt;br/&gt; update_time  /* 更新时间 */: datetime&lt;br/&gt; name  /* 姓名 */: varchar(50)&lt;br/&gt; mobile  /* 手机号码 */: varchar(11)&lt;br/&gt; id_card  /* 身份证号 */: varchar(50)&lt;br/&gt; region_id  /* 区县ID */: varchar(36)&lt;br/&gt; order_hospital  /* 预约医院 */: varchar(50)&lt;br/&gt; order_date  /* 预约日期 */: date&lt;br/&gt; order_time_slot  /* 预约时间段 */: varchar(50)&lt;br/&gt; is_delete  /* 是否删除（0 删除 1 未删除） */: varchar(1)&lt;/p&gt;&lt;hr size=&quot;1&quot;/&gt;&lt;p style=&quot;margin:0 0 0 4px;line-height:1.6;&quot;&gt; id  /* id主键 */: varchar(36)&lt;/p&gt;" style="verticalAlign=top;align=left;overflow=fill;fontSize=14;fontFamily=Helvetica;html=1;rounded=0;shadow=0;comic=0;labelBackgroundColor=none;strokeWidth=1;" parent="1" vertex="1">
          <mxGeometry x="141" y="4005" width="398" height="323" as="geometry" />
        </mxCell>
        <mxCell id="node9" value="&lt;p style=&quot;margin:0px;margin-top:4px;text-align:center;&quot;&gt;&lt;b&gt;t_organ  /* 机构表 */&lt;/b&gt;&lt;/p&gt;&lt;hr size=&quot;1&quot;/&gt;&lt;p style=&quot;margin:0 0 0 4px;line-height:1.6;&quot;&gt; name  /* 机构名称 */: varchar(200)&lt;br/&gt; short_name: varchar(200)&lt;br/&gt; description  /* 机构描述 */: varchar(100)&lt;br/&gt; parent_id  /* 上级机构id,为0表示根节点 */: varchar(40)&lt;br/&gt; sort_num  /* 排序 */: int(11)&lt;br/&gt; contact  /* 联系人 */: varchar(50)&lt;br/&gt; phone  /* 联系电话 */: varchar(20)&lt;br/&gt; email  /* 电子邮箱 */: varchar(50)&lt;br/&gt; address  /* 联系地址 */: varchar(200)&lt;br/&gt; create_time  /* 创建时间 */: datetime&lt;br/&gt; update_time  /* 更新时间 */: datetime&lt;br/&gt; create_id  /* 创建人id */: varchar(32)&lt;br/&gt; update_id  /* 修改人id */: varchar(32)&lt;br/&gt; status  /* 有效状态0 停用 1 启用 */: int(11)&lt;br/&gt; valid  /* 是否有效 (0-无效 1-有效) */: int(11)&lt;br/&gt; is_delivery  /* 是否可递送（0-否 1-是） */: int(11)&lt;/p&gt;&lt;hr size=&quot;1&quot;/&gt;&lt;p style=&quot;margin:0 0 0 4px;line-height:1.6;&quot;&gt; id  /* id主键(机构key) */: varchar(40)&lt;/p&gt;" style="verticalAlign=top;align=left;overflow=fill;fontSize=14;fontFamily=Helvetica;html=1;rounded=0;shadow=0;comic=0;labelBackgroundColor=none;strokeWidth=1;" parent="1" vertex="1">
          <mxGeometry x="271" y="3481" width="398" height="479" as="geometry" />
        </mxCell>
        <mxCell id="node24" value="&lt;p style=&quot;margin:0px;margin-top:4px;text-align:center;&quot;&gt;&lt;b&gt;t_pathology_examination_info  /* 宫颈癌组织病理检查信息登记 */&lt;/b&gt;&lt;/p&gt;&lt;hr size=&quot;1&quot;/&gt;&lt;p style=&quot;margin:0 0 0 4px;line-height:1.6;&quot;&gt; create_time  /* 创建时间 */: datetime&lt;br/&gt; update_time  /* 更新时间 */: datetime&lt;br/&gt; create_id  /* 创建者id */: varchar(36)&lt;br/&gt; update_id  /* 更新者id */: varchar(36)&lt;br/&gt; is_delete  /* 是否删除（0 删除 1 未删除） */: varchar(1)&lt;br/&gt; cervical_curette_no  /* 宫颈刮片号 */: varchar(50)&lt;br/&gt; pathology_examination_result  /* 组织病理检查结果 存储组织病理检查结果字典key */: varchar(50)&lt;br/&gt; pathology_examination_result_other  /* 组织病理检查结果其他 */: varchar(255)&lt;br/&gt; diagnostic_org  /* 诊断机构 */: varchar(200)&lt;br/&gt; reporter  /* 报告人员 */: varchar(50)&lt;br/&gt; diagnostic_date  /* 诊断日期 */: datetime&lt;br/&gt; last_menstruation  /* 末次月经 废弃 */: datetime&lt;br/&gt; tct_result  /* TCT结果 废弃 */: varchar(50)&lt;br/&gt; received_date  /* 接收日期 废弃 */: datetime&lt;br/&gt; submission_date  /* 送检日期 废弃 */: datetime&lt;br/&gt; sampling_position  /* 取材部位 废弃 */: varchar(50)&lt;br/&gt; operator_id  /* 操作人ID */: varchar(255)&lt;br/&gt; operator_name  /* 操作人名称 */: varchar(255)&lt;br/&gt; operator_org_id  /* 操作机构ID */: varchar(255)&lt;br/&gt; operator_org_name  /* 操作机构名称 */: varchar(255)&lt;/p&gt;&lt;hr size=&quot;1&quot;/&gt;&lt;p style=&quot;margin:0 0 0 4px;line-height:1.6;&quot;&gt; id  /* id主键 */: varchar(36)&lt;/p&gt;" style="verticalAlign=top;align=left;overflow=fill;fontSize=14;fontFamily=Helvetica;html=1;rounded=0;shadow=0;comic=0;labelBackgroundColor=none;strokeWidth=1;" parent="1" vertex="1">
          <mxGeometry x="3679" y="2069" width="690" height="583" as="geometry" />
        </mxCell>
        <mxCell id="node19" value="&lt;p style=&quot;margin:0px;margin-top:4px;text-align:center;&quot;&gt;&lt;b&gt;t_pelvic_follow  /* 盆底随访治疗表 */&lt;/b&gt;&lt;/p&gt;&lt;hr size=&quot;1&quot;/&gt;&lt;p style=&quot;margin:0 0 0 4px;line-height:1.6;&quot;&gt; create_time  /* 创建时间 */: datetime&lt;br/&gt; update_time  /* 更新时间 */: datetime&lt;br/&gt; create_id  /* 创建者id */: varchar(36)&lt;br/&gt; update_id  /* 更新者id */: varchar(36)&lt;br/&gt; is_delete  /* 是否删除（0 删除 1 未删除） */: varchar(1)&lt;br/&gt; cervical_curette_no  /* 宫颈刮片号 */: varchar(50)&lt;br/&gt; cervical_lesions_treatment  /* 是否治疗 存储是否字典 */: varchar(50)&lt;br/&gt; curative_treatment  /* 治疗方法 */: varchar(255)&lt;br/&gt; treatment_date  /* 治疗日期 */: datetime&lt;br/&gt; untreated_reason  /* 未治原因 */: varchar(255)&lt;br/&gt; therapist  /* 治疗医生 */: varchar(50)&lt;br/&gt; cervical_lesions_follow_up  /* 随访情况 存储宫颈病变随访情况字典key */: varchar(50)&lt;br/&gt; follow_up_date  /* 随访日期 */: datetime&lt;br/&gt; follow_up_org  /* 随访机构 */: varchar(50)&lt;br/&gt; follow_up_user  /* 随访人员 */: varchar(50)&lt;br/&gt; operator_id  /* 操作人ID */: varchar(255)&lt;br/&gt; operator_name  /* 操作人名称 */: varchar(255)&lt;br/&gt; operator_org_id  /* 操作机构ID */: varchar(255)&lt;br/&gt; operator_org_name  /* 操作机构名称 */: varchar(255)&lt;/p&gt;&lt;hr size=&quot;1&quot;/&gt;&lt;p style=&quot;margin:0 0 0 4px;line-height:1.6;&quot;&gt; id  /* id主键 */: varchar(36)&lt;/p&gt;" style="verticalAlign=top;align=left;overflow=fill;fontSize=14;fontFamily=Helvetica;html=1;rounded=0;shadow=0;comic=0;labelBackgroundColor=none;strokeWidth=1;" parent="1" vertex="1">
          <mxGeometry x="-383" y="2879" width="611" height="557" as="geometry" />
        </mxCell>
        <mxCell id="node17" value="&lt;p style=&quot;margin:0px;margin-top:4px;text-align:center;&quot;&gt;&lt;b&gt;t_pelvic_review  /* 盆底复查表 */&lt;/b&gt;&lt;/p&gt;&lt;hr size=&quot;1&quot;/&gt;&lt;p style=&quot;margin:0 0 0 4px;line-height:1.6;&quot;&gt; create_time  /* 创建时间 */: datetime&lt;br/&gt; update_time  /* 更新时间 */: datetime&lt;br/&gt; create_id  /* 创建者id */: varchar(36)&lt;br/&gt; update_id  /* 更新者id */: varchar(36)&lt;br/&gt; is_delete  /* 是否删除（0 删除 1 未删除） */: varchar(1)&lt;br/&gt; cervical_curette_no  /* 宫颈刮片号 */: varchar(50)&lt;br/&gt; uterine_prolapse  /* 子宫脱垂 存储子宫脱垂字典key  */: varchar(50)&lt;br/&gt; urinary_incontinence  /* 尿失禁 存储尿失禁字典key  */: varchar(50)&lt;br/&gt; anterior_vaginal_wall_prolapse  /* 阴道前壁膨出 存储阴道前壁膨出字典key  */: varchar(50)&lt;br/&gt; posterior_vaginal_wall_prolapse  /* 阴道后壁膨出 存储阴道后壁膨出字典key  */: varchar(50)&lt;br/&gt; inspectors  /* 检查人员 */: varchar(50)&lt;br/&gt; inspection_date  /* 检查日期 */: datetime&lt;br/&gt; inspection_org  /* 检查机构 */: varchar(50)&lt;br/&gt; operator_id  /* 操作人ID */: varchar(255)&lt;br/&gt; operator_name  /* 操作人名称 */: varchar(255)&lt;br/&gt; operator_org_id  /* 操作机构ID */: varchar(255)&lt;br/&gt; operator_org_name  /* 操作机构名称 */: varchar(255)&lt;br/&gt; cleanliness  /* 清洁度 */: varchar(50)&lt;/p&gt;&lt;hr size=&quot;1&quot;/&gt;&lt;p style=&quot;margin:0 0 0 4px;line-height:1.6;&quot;&gt; id  /* id主键 */: varchar(36)&lt;/p&gt;" style="verticalAlign=top;align=left;overflow=fill;fontSize=14;fontFamily=Helvetica;html=1;rounded=0;shadow=0;comic=0;labelBackgroundColor=none;strokeWidth=1;" parent="1" vertex="1">
          <mxGeometry x="1648" y="2879" width="655" height="531" as="geometry" />
        </mxCell>
        <mxCell id="node10" value="&lt;p style=&quot;margin:0px;margin-top:4px;text-align:center;&quot;&gt;&lt;b&gt;t_region  /* 区域信息表 */&lt;/b&gt;&lt;/p&gt;&lt;hr size=&quot;1&quot;/&gt;&lt;p style=&quot;margin:0 0 0 4px;line-height:1.6;&quot;&gt; create_time  /* 创建时间 */: datetime&lt;br/&gt; update_time  /* 更新时间 */: datetime&lt;br/&gt; create_id  /* 创建者id */: varchar(36)&lt;br/&gt; update_id  /* 更新者id */: varchar(36)&lt;br/&gt; is_delete  /* 是否删除（0 删除 1 未删除） */: varchar(1)&lt;br/&gt; name  /* 区域信息名称 */: varchar(50)&lt;br/&gt; pid  /* 父区域ID,若为顶级无父区域ID则为0 */: varchar(36)&lt;br/&gt; concat_pid  /* 所有父ID拼接，使用，分割 */: varchar(500)&lt;br/&gt; level  /* 区域等级；1：省；2：市；3：区-县；4：街道-乡镇；5：居委会-行政村 */: int(11)&lt;br/&gt; code  /* 省-省编码↲市-地市编码↲区-县区编码↲街道-乡镇/街道编码↲居委会-行政村/居委会编码 */: varchar(50)&lt;br/&gt; mer_code  /* 省-省编码↲市-省编码+地市编码↲区-省编码+地市编码+县区编码↲街道-省编码+地市编码+县区编码+乡镇/街道编码↲居委会... */: varchar(255)&lt;br/&gt; mer_name  /* 父级mer_name + 本身的name */: varchar(255)&lt;/p&gt;&lt;hr size=&quot;1&quot;/&gt;&lt;p style=&quot;margin:0 0 0 4px;line-height:1.6;&quot;&gt; id  /* id主键 */: varchar(36)&lt;/p&gt;" style="verticalAlign=top;align=left;overflow=fill;fontSize=14;fontFamily=Helvetica;html=1;rounded=0;shadow=0;comic=0;labelBackgroundColor=none;strokeWidth=1;" parent="1" vertex="1">
          <mxGeometry x="2002" y="3481" width="766" height="375" as="geometry" />
        </mxCell>
        <mxCell id="node41" value="&lt;p style=&quot;margin:0px;margin-top:4px;text-align:center;&quot;&gt;&lt;b&gt;t_register_delivery  /* 登记信息和递送记录关联表 */&lt;/b&gt;&lt;/p&gt;&lt;hr size=&quot;1&quot;/&gt;&lt;p style=&quot;margin:0 0 0 4px;line-height:1.6;&quot;&gt; create_time  /* 创建时间 */: datetime&lt;br/&gt; update_time  /* 更新时间 */: datetime&lt;br/&gt; create_id  /* 创建者id */: varchar(36)&lt;br/&gt; update_id  /* 更新者id */: varchar(36)&lt;br/&gt; is_delete  /* 是否删除（0 删除 1 未删除） */: varchar(1)&lt;br/&gt; register_info_id  /* 登记信息id */: varchar(50)&lt;br/&gt; delivery_id  /* 递送记录id */: varchar(50)&lt;/p&gt;&lt;hr size=&quot;1&quot;/&gt;&lt;p style=&quot;margin:0 0 0 4px;line-height:1.6;&quot;&gt; id  /* id主键 */: varchar(36)&lt;/p&gt;" style="verticalAlign=top;align=left;overflow=fill;fontSize=14;fontFamily=Helvetica;html=1;rounded=0;shadow=0;comic=0;labelBackgroundColor=none;strokeWidth=1;" parent="1" vertex="1">
          <mxGeometry x="1907" y="4005" width="422" height="245" as="geometry" />
        </mxCell>
        <mxCell id="node22" value="&lt;p style=&quot;margin:0px;margin-top:4px;text-align:center;&quot;&gt;&lt;b&gt;t_register_info  /* 两癌信息登记表 */&lt;/b&gt;&lt;/p&gt;&lt;hr size=&quot;1&quot;/&gt;&lt;p style=&quot;margin:0 0 0 4px;line-height:1.6;&quot;&gt; create_time  /* 创建时间 */: datetime&lt;br/&gt; update_time  /* 更新时间 */: datetime&lt;br/&gt; create_id  /* 创建者id */: varchar(36)&lt;br/&gt; update_id  /* 更新者id */: varchar(36)&lt;br/&gt; is_delete  /* 是否删除（0 删除 1 未删除） */: varchar(1)&lt;br/&gt; case_no  /* 个案号 */: varchar(50)&lt;br/&gt; cervical_curette_no  /* 宫颈刮片号 */: varchar(50)&lt;br/&gt; mammary_gland_no  /* 乳腺编号 */: varchar(50)&lt;br/&gt; age  /* 年龄 */: int(11)&lt;br/&gt; name  /* 姓名 */: varchar(50)&lt;br/&gt; sex  /* 性别 存储性别字典 */: varchar(20)&lt;br/&gt; current_address  /* 现住址 */: varchar(255)&lt;br/&gt; birthday  /* 出生日期 */: datetime&lt;br/&gt; certificate_type  /* 证件类型,存储证件类型字典key值 */: varchar(20)&lt;br/&gt; id_card  /* 证件号码 */: varchar(50)&lt;br/&gt; management_place_id  /* 管理地id 存储区域表t_region的id */: varchar(50)&lt;br/&gt; management_place_mer_name  /* 管理地名称 存储区域表t_region的mer_name */: varchar(255)&lt;br/&gt; barcode  /* 条码号 */: varchar(50)&lt;br/&gt; phone_number  /* 电话号码/联系电话 */: varchar(50)&lt;br/&gt; inspection_types  /* 检查项目 存储检查项目字典key值，使用,分割↲ */: varchar(255)&lt;br/&gt; allowances  /* 低保情况/项目情况 存储低保字典key值 */: varchar(50)&lt;br/&gt; entry_organization  /* 录入机构  存储机构表t_organ ID */: varchar(50)&lt;br/&gt; registrant  /* 登记人 */: varchar(50)&lt;br/&gt; inspection_date  /* 检查日期 */: datetime&lt;br/&gt; residence_id  /* 户口地ID 存储区域表t_region的id */: varchar(50)&lt;br/&gt; residence_name  /* 户口地名称 存储区域表t_region的mer_name */: varchar(255)&lt;br/&gt; menopause_status  /* 是否绝经 存储是否字典key */: varchar(20)&lt;br/&gt; menopause_age  /* 绝经年龄 */: int(11)&lt;br/&gt; project_situation  /* 项目情况 存储项目情况字典key，多个使用,分割 暂时废弃 */: varchar(255)&lt;br/&gt; education_level  /* ↲文化程度 存储文化程度字典key↲ */: varchar(20)&lt;br/&gt; doctor_signature  /* 医师签名 */: varchar(50)&lt;br/&gt; community_code  /* 居委会编码（省+市+区+街道+居委会） */: varchar(255)&lt;br/&gt; order_code  /* 检查对象顺序编码 */: varchar(255)&lt;br/&gt; is_delivery  /* 是否递送（0：否，未递送；1：是，已递送） */: int(11)&lt;br/&gt; belong_area_id  /* 所属区县id */: varchar(50)&lt;/p&gt;&lt;hr size=&quot;1&quot;/&gt;&lt;p style=&quot;margin:0 0 0 4px;line-height:1.6;&quot;&gt; id  /* id主键 */: varchar(36)&lt;/p&gt;" style="verticalAlign=top;align=left;overflow=fill;fontSize=14;fontFamily=Helvetica;html=1;rounded=0;shadow=0;comic=0;labelBackgroundColor=none;strokeWidth=1;" parent="1" vertex="1">
          <mxGeometry x="1014" y="947" width="670" height="973" as="geometry" />
        </mxCell>
        <mxCell id="node27" value="&lt;p style=&quot;margin:0px;margin-top:4px;text-align:center;&quot;&gt;&lt;b&gt;t_report  /* 报告管理表 */&lt;/b&gt;&lt;/p&gt;&lt;hr size=&quot;1&quot;/&gt;&lt;p style=&quot;margin:0 0 0 4px;line-height:1.6;&quot;&gt; bar_code  /* 条码号 */: varchar(50)&lt;br/&gt; lab_no  /* 实验编号 */: varchar(50)&lt;br/&gt; belong_area  /* 所属区县 */: varchar(100)&lt;br/&gt; town  /* 管理地(街道/镇) */: varchar(200)&lt;br/&gt; cervical_cancer_no  /* 宫颈癌序号 */: varchar(100)&lt;br/&gt; breast_cancer_no  /* 乳腺癌序号 */: varchar(100)&lt;br/&gt; name: varchar(50)&lt;br/&gt; patient_no  /* 门诊号 */: varchar(50)&lt;br/&gt; inspect_hospital  /* 送检医院 */: varchar(100)&lt;br/&gt; idcard  /* 身份证号码 */: varchar(20)&lt;br/&gt; admission_no  /* 住院号 */: varchar(50)&lt;br/&gt; inspect_office  /* 送检科室 */: varchar(50)&lt;br/&gt; age  /* 年龄 */: varchar(3)&lt;br/&gt; sickbed_no  /* 病床号 */: varchar(50)&lt;br/&gt; inspect_doctor  /* 送检医师 */: varchar(10)&lt;br/&gt; address  /* 地址 */: varchar(200)&lt;br/&gt; receive_date  /* 接受日期 */: datetime&lt;br/&gt; smear_name  /* 涂片类型名称 */: varchar(100)&lt;br/&gt; dye_name  /* 染色名称 */: varchar(100)&lt;br/&gt; clinical_diagnosis  /* 临床诊断 */: varchar(100)&lt;br/&gt; sampling_name  /* 送检样本 */: varchar(100)&lt;br/&gt; satisfaction_type  /* 样本满意度 1 满意 2不满意 */: varchar(1)&lt;br/&gt; unsatisfy_type  /* 样本不满意度缘由类型DM */: varchar(10)&lt;br/&gt; suggest_type  /* 检测结果建议类型 1定期体检，观察随访 2转诊阴道镜检查 */: varchar(1)&lt;br/&gt; detection_type  /* 检测结果类型即复审结果类型(1为阴性 其他均为阳性) 1【未见】2【ASC-US】3【ASC-H】4【LSIL】5【HSI... */: varchar(3)&lt;br/&gt; comment  /* 备注 */: varchar(100)&lt;br/&gt; report_date  /* 报告日期 */: datetime&lt;br/&gt; auditor  /* 审核人签名 */: varchar(20)&lt;br/&gt; is_sign  /* 是否签名 0 未签名 1已签名 默认0 */: varchar(1)&lt;br/&gt; check_date  /* 检查日期 */: datetime&lt;br/&gt; sampling_site  /* 录入机构 */: varchar(200)&lt;br/&gt; pathological_feature_path  /* 病理特征图地址 */: varchar(500)&lt;br/&gt; pathological_base64  /* 病理特征图base64字符串 */: mediumtext&lt;br/&gt; inspection_report_path  /* 检测报告单地址 */: varchar(500)&lt;br/&gt; related_id  /* 关联ID,存放国卫接口返回的MainId字段 */: int(11)&lt;br/&gt; scan_time  /* 扫描时间 */: datetime&lt;br/&gt; handle_status  /* 切片状态 1已扫描且未诊断 2已诊断即已初审 3已复审 */: varchar(1)&lt;br/&gt; ai_check_type  /* AI诊断结果类型 */: varchar(3)&lt;br/&gt; ai_check_time  /* AI诊断时间 */: datetime&lt;br/&gt; check_type  /* 初审结果类型 */: varchar(3)&lt;br/&gt; check_physician  /* 初审医师 */: varchar(20)&lt;br/&gt; check_time  /* 初审时间 */: datetime&lt;br/&gt; recheck_physician  /* 复审医师 */: varchar(20)&lt;br/&gt; recheck_time  /* 复审时间即诊断时间 */: datetime&lt;br/&gt; create_time  /* 创建时间 */: datetime&lt;br/&gt; update_time  /* 更新时间 */: datetime&lt;br/&gt; create_id  /* 创建者id */: varchar(36)&lt;br/&gt; update_id  /* 更新者id */: varchar(36)&lt;br/&gt; is_delete  /* 是否删除（0 删除 1 未删除） */: varchar(1)&lt;br/&gt; gy_type  /* 国卫类型 */: varchar(100)&lt;/p&gt;&lt;hr size=&quot;1&quot;/&gt;&lt;p style=&quot;margin:0 0 0 4px;line-height:1.6;&quot;&gt; id  /* id主键 */: varchar(36)&lt;/p&gt;" style="verticalAlign=top;align=left;overflow=fill;fontSize=14;fontFamily=Helvetica;html=1;rounded=0;shadow=0;comic=0;labelBackgroundColor=none;strokeWidth=1;" parent="1" vertex="1">
          <mxGeometry x="3015" y="-903" width="659" height="1363" as="geometry" />
        </mxCell>
        <mxCell id="node28" value="&lt;p style=&quot;margin:0px;margin-top:4px;text-align:center;&quot;&gt;&lt;b&gt;t_report_ai_analyze  /* 检查数据用于AI分析 */&lt;/b&gt;&lt;/p&gt;&lt;hr size=&quot;1&quot;/&gt;&lt;p style=&quot;margin:0 0 0 4px;line-height:1.6;&quot;&gt; id  /* 主键id */: bigint(20)&lt;br/&gt; file_address: varchar(128)&lt;br/&gt; report_type  /* 检查类型 1：乳腺 2：宫颈 */: char(1)&lt;br/&gt; data_id  /* 对应数据id */: varchar(32)&lt;br/&gt; data_source  /* 来源 1：Pacs客户端 2：两癌筛查等级系统 */: char(1)&lt;br/&gt; create_time: timestamp&lt;/p&gt;" style="verticalAlign=top;align=left;overflow=fill;fontSize=14;fontFamily=Helvetica;html=1;rounded=0;shadow=0;comic=0;labelBackgroundColor=none;strokeWidth=1;" parent="1" vertex="1">
          <mxGeometry x="3599" y="4005" width="482" height="192" as="geometry" />
        </mxCell>
        <mxCell id="node37" value="&lt;p style=&quot;margin:0px;margin-top:4px;text-align:center;&quot;&gt;&lt;b&gt;t_role  /* 角色表 */&lt;/b&gt;&lt;/p&gt;&lt;hr size=&quot;1&quot;/&gt;&lt;p style=&quot;margin:0 0 0 4px;line-height:1.6;&quot;&gt; role_name  /* 角色名称 */: varchar(200)&lt;br/&gt; type  /* 角色类型DM */: varchar(10)&lt;br/&gt; sort_num  /* 排序 */: int(11)&lt;br/&gt; create_time  /* 创建时间 */: datetime&lt;br/&gt; update_time  /* 修改时间 */: datetime&lt;br/&gt; remark  /* 备注 */: varchar(500)&lt;br/&gt; status  /* 0禁用1启用 */: int(11)&lt;br/&gt; valid  /* 是否删除（0 删除 1 未删除） */: int(11)&lt;/p&gt;&lt;hr size=&quot;1&quot;/&gt;&lt;p style=&quot;margin:0 0 0 4px;line-height:1.6;&quot;&gt; id  /* id */: varchar(36)&lt;/p&gt;" style="verticalAlign=top;align=left;overflow=fill;fontSize=14;fontFamily=Helvetica;html=1;rounded=0;shadow=0;comic=0;labelBackgroundColor=none;strokeWidth=1;" parent="1" vertex="1">
          <mxGeometry x="1525" y="4005" width="337" height="271" as="geometry" />
        </mxCell>
        <mxCell id="node1" value="&lt;p style=&quot;margin:0px;margin-top:4px;text-align:center;&quot;&gt;&lt;b&gt;t_role_menu  /* 角色菜单表 */&lt;/b&gt;&lt;/p&gt;&lt;hr size=&quot;1&quot;/&gt;&lt;p style=&quot;margin:0 0 0 4px;line-height:1.6;&quot;&gt; role_id  /* 角色id */: varchar(40)&lt;br/&gt; menu_id  /* 菜单id */: varchar(100)&lt;br/&gt; create_time  /* 创建时间 */: datetime&lt;br/&gt; update_time  /* 修改时间 */: datetime&lt;br/&gt; valid  /* 是否删除（0 删除 1 未删除） */: int(11)&lt;/p&gt;&lt;hr size=&quot;1&quot;/&gt;&lt;p style=&quot;margin:0 0 0 4px;line-height:1.6;&quot;&gt; id  /* id */: varchar(40)&lt;/p&gt;" style="verticalAlign=top;align=left;overflow=fill;fontSize=14;fontFamily=Helvetica;html=1;rounded=0;shadow=0;comic=0;labelBackgroundColor=none;strokeWidth=1;" parent="1" vertex="1">
          <mxGeometry x="3217" y="4005" width="337" height="193" as="geometry" />
        </mxCell>
        <mxCell id="node45" value="&lt;p style=&quot;margin:0px;margin-top:4px;text-align:center;&quot;&gt;&lt;b&gt;t_sample  /* 样本管理表 */&lt;/b&gt;&lt;/p&gt;&lt;hr size=&quot;1&quot;/&gt;&lt;p style=&quot;margin:0 0 0 4px;line-height:1.6;&quot;&gt; bar_code  /* 条码号 */: varchar(50)&lt;br/&gt; lab_no  /* 实验编号 */: varchar(50)&lt;br/&gt; name  /* 姓名 */: varchar(50)&lt;br/&gt; is_reset  /* 是否重置 0未重置 1已重置 默认0 */: varchar(1)&lt;br/&gt; age  /* 年龄 */: varchar(3)&lt;br/&gt; idcard  /* 身份证号码 */: varchar(20)&lt;br/&gt; telephone  /* 联系电话 */: varchar(15)&lt;br/&gt; cervical_cancer_no  /* 宫颈癌序号 */: varchar(100)&lt;br/&gt; breast_cancer_no  /* 乳腺癌序号 */: varchar(100)&lt;br/&gt; address  /* 现住址 */: varchar(500)&lt;br/&gt; birthdate  /* 出生日期 */: varchar(50)&lt;br/&gt; doctor_sign  /* 医师签名 */: varchar(10)&lt;br/&gt; check_date  /* 检查日期 */: datetime&lt;br/&gt; sample_type  /* 样本类型 1首次采集 2重新采集 */: varchar(1)&lt;br/&gt; sampling_site  /* 采样点 */: varchar(200)&lt;br/&gt; area  /* 所属区县 */: varchar(200)&lt;br/&gt; province  /* 管理地(省) */: varchar(100)&lt;br/&gt; city  /* 管理地(市) */: varchar(100)&lt;br/&gt; county  /* 管理地(区/县) */: varchar(100)&lt;br/&gt; town  /* 管理地(街道/镇) */: varchar(255)&lt;br/&gt; country  /* 管理地(社区/村) */: varchar(255)&lt;br/&gt; detail_address  /* 管理地(详细地址) */: varchar(255)&lt;br/&gt; patient_no  /* 门诊号 */: varchar(50)&lt;br/&gt; inspect_hospital  /* 送检医院 */: varchar(100)&lt;br/&gt; admission_no  /* 住院号 */: varchar(50)&lt;br/&gt; inspect_office  /* 送检科室 */: varchar(50)&lt;br/&gt; sickbed_no  /* 病床号 */: varchar(50)&lt;br/&gt; inspect_doctor  /* 送检医师 */: varchar(10)&lt;br/&gt; sample_status  /* 当前样本状态 1接收 2纸片染色 3风干 4扫描 5生成报告 */: varchar(1)&lt;br/&gt; is_qualified  /* 样本是否合格 0 否 1是 */: varchar(1)&lt;br/&gt; unqualified_content  /* 不合格原因 */: varchar(255)&lt;br/&gt; receive_name  /* 接收人 */: varchar(100)&lt;br/&gt; receive_time  /* 接收时间 */: datetime&lt;br/&gt; flaking_dye_name  /* 制片染色人,多个人以逗号分隔 */: varchar(100)&lt;br/&gt; flaking_dye_time  /* 制片染色时间 */: datetime&lt;br/&gt; flaking_dye_comment  /* 制片染色备注 */: varchar(255)&lt;br/&gt; air_drying_name  /* 风干参与人,多个人以逗号分隔 */: varchar(100)&lt;br/&gt; air_drying_time  /* 风干时间 */: datetime&lt;br/&gt; air_drying_comment  /* 风干备注 */: varchar(255)&lt;br/&gt; scan_name  /* 扫描参与人,多个人以逗号分隔 */: varchar(100)&lt;br/&gt; scan_time  /* 扫描时间 */: datetime&lt;br/&gt; scan_comment  /* 扫描备注 */: varchar(255)&lt;br/&gt; generate_report_name  /* 生成报告参与人,多个人以逗号分隔 */: varchar(100)&lt;br/&gt; generate_report_time  /* 生成报告时间 */: datetime&lt;br/&gt; generate_report_comment  /* 生成报告备注 */: varchar(255)&lt;br/&gt; related_id  /* 关联ID,存放国卫接口返回的MainId字段 */: int(11)&lt;br/&gt; gy_type  /* 国卫类型 */: varchar(100)&lt;br/&gt; is_sign  /* 是否签名 0 未签名 1已签名 默认0 */: varchar(1)&lt;br/&gt; create_time  /* 创建时间 */: datetime&lt;br/&gt; update_time  /* 更新时间 */: datetime&lt;br/&gt; create_id  /* 创建者id */: varchar(36)&lt;br/&gt; update_id  /* 更新者id */: varchar(36)&lt;br/&gt; is_delete  /* 是否删除（0 删除 1 未删除） */: varchar(1)&lt;/p&gt;&lt;hr size=&quot;1&quot;/&gt;&lt;p style=&quot;margin:0 0 0 4px;line-height:1.6;&quot;&gt; id  /* id主键 */: varchar(36)&lt;/p&gt;" style="verticalAlign=top;align=left;overflow=fill;fontSize=14;fontFamily=Helvetica;html=1;rounded=0;shadow=0;comic=0;labelBackgroundColor=none;strokeWidth=1;" parent="1" vertex="1">
          <mxGeometry x="1113" y="-903" width="595" height="1441" as="geometry" />
        </mxCell>
        <mxCell id="node30" value="&lt;p style=&quot;margin:0px;margin-top:4px;text-align:center;&quot;&gt;&lt;b&gt;t_sys_log  /* 系统日志表 */&lt;/b&gt;&lt;/p&gt;&lt;hr size=&quot;1&quot;/&gt;&lt;p style=&quot;margin:0 0 0 4px;line-height:1.6;&quot;&gt; account  /* 用户账号 */: varchar(100)&lt;br/&gt; menu_module  /* 菜单模块 */: varchar(100)&lt;br/&gt; operation  /* 操作内容 */: varchar(16)&lt;br/&gt; request_address  /* 请求地址 */: varchar(500)&lt;br/&gt; ip_address  /* 登录IP */: varchar(64)&lt;br/&gt; create_time  /* 创建时间 */: datetime&lt;br/&gt; update_time  /* 修改时间 */: datetime&lt;/p&gt;&lt;hr size=&quot;1&quot;/&gt;&lt;p style=&quot;margin:0 0 0 4px;line-height:1.6;&quot;&gt; id  /* 主键 */: varchar(36)&lt;/p&gt;" style="verticalAlign=top;align=left;overflow=fill;fontSize=14;fontFamily=Helvetica;html=1;rounded=0;shadow=0;comic=0;labelBackgroundColor=none;strokeWidth=1;" parent="1" vertex="1">
          <mxGeometry x="2818" y="4005" width="354" height="245" as="geometry" />
        </mxCell>
        <mxCell id="node2" value="&lt;p style=&quot;margin:0px;margin-top:4px;text-align:center;&quot;&gt;&lt;b&gt;t_tmp  /* 临时表-存储实验室编号 */&lt;/b&gt;&lt;/p&gt;&lt;hr size=&quot;1&quot;/&gt;&lt;p style=&quot;margin:0 0 0 4px;line-height:1.6;&quot;&gt; number  /* 当前编号 */: int(11)&lt;br/&gt; is_valid  /* 是否有效 0无效 1有效 默认1 */: varchar(1)&lt;br/&gt; create_time  /* 创建时间 */: datetime&lt;/p&gt;" style="verticalAlign=top;align=left;overflow=fill;fontSize=14;fontFamily=Helvetica;html=1;rounded=0;shadow=0;comic=0;labelBackgroundColor=none;strokeWidth=1;" parent="1" vertex="1">
          <mxGeometry x="-383" y="4399" width="379" height="123" as="geometry" />
        </mxCell>
        <mxCell id="node38" value="&lt;p style=&quot;margin:0px;margin-top:4px;text-align:center;&quot;&gt;&lt;b&gt;t_tnm_staging  /* 乳腺癌TNM分期 */&lt;/b&gt;&lt;/p&gt;&lt;hr size=&quot;1&quot;/&gt;&lt;p style=&quot;margin:0 0 0 4px;line-height:1.6;&quot;&gt; create_time  /* 创建时间 */: datetime&lt;br/&gt; update_time  /* 更新时间 */: datetime&lt;br/&gt; create_id  /* 创建者id */: varchar(36)&lt;br/&gt; update_id  /* 更新者id */: varchar(36)&lt;br/&gt; is_delete  /* 是否删除（0 删除 1 未删除） */: varchar(1)&lt;br/&gt; clinical_staging_tnm  /* 临床分期TNM 存储临床分期TNM字典key */: varchar(50)&lt;br/&gt; pathological_staging_tnm  /* 病理分期TNM 存储病理分期TNM字典key */: varchar(50)&lt;br/&gt; treatment_status  /* 接受治疗情况 存储接受治疗情况字典key */: varchar(50)&lt;br/&gt; curative_treatment  /* 治疗方法 */: varchar(255)&lt;br/&gt; untreated_reason  /* 未治原因 */: varchar(255)&lt;br/&gt; diagnostic_org  /* 诊断机构 */: varchar(50)&lt;br/&gt; diagnostic_user  /* 诊断人员 */: varchar(50)&lt;br/&gt; diagnostic_date  /* 诊断日期 */: datetime&lt;br/&gt; img  /* 图片地址 */: varchar(2000)&lt;br/&gt; mammary_gland_no  /* 乳腺编号 */: varchar(50)&lt;br/&gt; operator_id  /* 操作人ID */: varchar(255)&lt;br/&gt; operator_name  /* 操作人名称 */: varchar(255)&lt;br/&gt; operator_org_id  /* 操作机构ID */: varchar(255)&lt;br/&gt; operator_org_name  /* 操作机构名称 */: varchar(255)&lt;/p&gt;&lt;hr size=&quot;1&quot;/&gt;&lt;p style=&quot;margin:0 0 0 4px;line-height:1.6;&quot;&gt; id  /* id主键 */: varchar(36)&lt;/p&gt;" style="verticalAlign=top;align=left;overflow=fill;fontSize=14;fontFamily=Helvetica;html=1;rounded=0;shadow=0;comic=0;labelBackgroundColor=none;strokeWidth=1;" parent="1" vertex="1">
          <mxGeometry x="273" y="2879" width="609" height="557" as="geometry" />
        </mxCell>
        <mxCell id="node6" value="&lt;p style=&quot;margin:0px;margin-top:4px;text-align:center;&quot;&gt;&lt;b&gt;t_user  /* 用户表 */&lt;/b&gt;&lt;/p&gt;&lt;hr size=&quot;1&quot;/&gt;&lt;p style=&quot;margin:0 0 0 4px;line-height:1.6;&quot;&gt; user_name  /* 用户账号 */: varchar(200)&lt;br/&gt; password  /* 密码(设置默认的936c77239da611f4484720a762a9f5fe0b68c5df（123456）) */: varchar(255)&lt;br/&gt; real_name  /* 姓名 */: varchar(50)&lt;br/&gt; contact  /* 联系电话 */: varchar(20)&lt;br/&gt; email  /* 电子邮箱 */: varchar(50)&lt;br/&gt; role_id  /* 角色id */: varchar(36)&lt;br/&gt; organ_id  /* 机构id */: varchar(36)&lt;br/&gt; img_path  /* 用户签名图片base64字符串 */: mediumtext&lt;br/&gt; create_id  /* 创建人 */: varchar(36)&lt;br/&gt; update_id  /* 修改人 */: varchar(36)&lt;br/&gt; create_time  /* 创建时间 */: datetime&lt;br/&gt; update_time  /* 修改时间 */: datetime&lt;br/&gt; valid  /* 是否删除 0 删除 1 未删除 */: int(11)&lt;br/&gt; remark  /* 备注 */: varchar(200)&lt;br/&gt; status  /* 0禁用1启用 */: int(11)&lt;br/&gt; belong_area  /* 所属区县 */: varchar(20)&lt;/p&gt;&lt;hr size=&quot;1&quot;/&gt;&lt;p style=&quot;margin:0 0 0 4px;line-height:1.6;&quot;&gt; id  /* id主键 */: varchar(36)&lt;/p&gt;" style="verticalAlign=top;align=left;overflow=fill;fontSize=14;fontFamily=Helvetica;html=1;rounded=0;shadow=0;comic=0;labelBackgroundColor=none;strokeWidth=1;" parent="1" vertex="1">
          <mxGeometry x="-383" y="3481" width="609" height="479" as="geometry" />
        </mxCell>
        <mxCell id="node26" value="&lt;p style=&quot;margin:0px;margin-top:4px;text-align:center;&quot;&gt;&lt;b&gt;xin_guan_yi_miao_jie_zhong_ji_lu&lt;/b&gt;&lt;/p&gt;&lt;hr size=&quot;1&quot;/&gt;&lt;p style=&quot;margin:0 0 0 4px;line-height:1.6;&quot;&gt; core_id: int(11)&lt;br/&gt; created_time: datetime&lt;br/&gt; updated_time: datetime&lt;br/&gt; updated_by: varchar(20)&lt;br/&gt; created_by: varchar(20)&lt;br/&gt; local_times: varchar(20)&lt;br/&gt; manufacturer: varchar(20)&lt;br/&gt; res_id: varchar(30)&lt;br/&gt; vaccination_company: varchar(50)&lt;br/&gt; vaccination_date: date&lt;br/&gt; vaccine_name: varchar(20)&lt;br/&gt; work_company: varchar(255)&lt;/p&gt;&lt;hr size=&quot;1&quot;/&gt;&lt;p style=&quot;margin:0 0 0 4px;line-height:1.6;&quot;&gt; id: int(11)&lt;/p&gt;" style="verticalAlign=top;align=left;overflow=fill;fontSize=14;fontFamily=Helvetica;html=1;rounded=0;shadow=0;comic=0;labelBackgroundColor=none;strokeWidth=1;" parent="1" vertex="1">
          <mxGeometry x="3256" y="3481" width="363" height="375" as="geometry" />
        </mxCell>
        <mxCell id="node39" value="&lt;p style=&quot;margin:0px;margin-top:4px;text-align:center;&quot;&gt;&lt;b&gt;xin_guan_yi_miao_jie_zhong_zhuan_xiang_xin_xi_dong_tai&lt;/b&gt;&lt;/p&gt;&lt;hr size=&quot;1&quot;/&gt;&lt;p style=&quot;margin:0 0 0 4px;line-height:1.6;&quot;&gt; created_time  /* 创建时间 */: datetime&lt;br/&gt; updated_time  /* 修改时间 */: datetime&lt;br/&gt; created_by  /* 创建人 */: varchar(50)&lt;br/&gt; updated_by  /* 修改人 */: varchar(50)&lt;br/&gt; res_id  /* 居民ID */: varchar(50)&lt;br/&gt; first_vaccine_date  /* 首次接种日期 */: date&lt;br/&gt; total_times  /* 总针剂 */: varchar(10)&lt;br/&gt; finish_times  /* 已接种针剂 */: varchar(10)&lt;br/&gt; vaccine_status  /* 接种状态 */: varchar(10)&lt;br/&gt; unit_name  /* 归属基本单元 */: varchar(30)&lt;br/&gt; grid_name  /* 归属社区/网格 */: varchar(30)&lt;/p&gt;&lt;hr size=&quot;1&quot;/&gt;&lt;p style=&quot;margin:0 0 0 4px;line-height:1.6;&quot;&gt; id  /* ID */: int(11)&lt;/p&gt;" style="verticalAlign=top;align=left;overflow=fill;fontSize=14;fontFamily=Helvetica;html=1;rounded=0;shadow=0;comic=0;labelBackgroundColor=none;strokeWidth=1;" parent="1" vertex="1">
          <mxGeometry x="3664" y="3481" width="600" height="349" as="geometry" />
        </mxCell>
      </root>
    </mxGraphModel>
  </diagram>
</mxfile>
